<?xml version="1.0" encoding="UTF-8" standalone="no"?>
<!DOCTYPE svg PUBLIC "-//W3C//DTD SVG 1.1//EN"
 "http://www.w3.org/Graphics/SVG/1.1/DTD/svg11.dtd">
<!-- Generated by graphviz version 2.43.0 (0)
 -->
<!-- Title: %3 Pages: 1 -->
<svg width="2277pt" height="620pt"
 viewBox="0.00 0.00 2277.08 620.00" xmlns="http://www.w3.org/2000/svg" xmlns:xlink="http://www.w3.org/1999/xlink">
<g id="graph0" class="graph" transform="scale(1 1) rotate(0) translate(4 616)">
<title>%3</title>
<polygon fill="white" stroke="transparent" points="-4,4 -4,-616 2273.08,-616 2273.08,4 -4,4"/>
<!-- [root] aws_instance.ubuntu&#45;ec2 -->
<g id="node1" class="node">
<title>[root] aws_instance.ubuntu&#45;ec2</title>
<polygon fill="none" stroke="black" points="726.91,-468 569.67,-468 569.67,-432 726.91,-432 726.91,-468"/>
<text text-anchor="middle" x="648.29" y="-445.8" font-family="Times,serif" font-size="14.00">aws_instance.ubuntu&#45;ec2</text>
</g>
<!-- [root] aws_key_pair.ec2&#45;key&#45;pair -->
<g id="node3" class="node">
<title>[root] aws_key_pair.ec2&#45;key&#45;pair</title>
<polygon fill="none" stroke="black" points="616.01,-396 448.57,-396 448.57,-360 616.01,-360 616.01,-396"/>
<text text-anchor="middle" x="532.29" y="-373.8" font-family="Times,serif" font-size="14.00">aws_key_pair.ec2&#45;key&#45;pair</text>
</g>
<!-- [root] aws_instance.ubuntu&#45;ec2&#45;&gt;[root] aws_key_pair.ec2&#45;key&#45;pair -->
<g id="edge1" class="edge">
<title>[root] aws_instance.ubuntu&#45;ec2&#45;&gt;[root] aws_key_pair.ec2&#45;key&#45;pair</title>
<path fill="none" stroke="black" d="M619.91,-431.88C604.75,-422.72 585.89,-411.34 569.55,-401.48"/>
<polygon fill="black" stroke="black" points="571.15,-398.36 560.78,-396.19 567.53,-404.35 571.15,-398.36"/>
</g>
<!-- [root] aws_security_group.ssh&#45;allowed -->
<g id="node8" class="node">
<title>[root] aws_security_group.ssh&#45;allowed</title>
<polygon fill="none" stroke="black" points="1039.92,-396 840.66,-396 840.66,-360 1039.92,-360 1039.92,-396"/>
<text text-anchor="middle" x="940.29" y="-373.8" font-family="Times,serif" font-size="14.00">aws_security_group.ssh&#45;allowed</text>
</g>
<!-- [root] aws_instance.ubuntu&#45;ec2&#45;&gt;[root] aws_security_group.ssh&#45;allowed -->
<g id="edge2" class="edge">
<title>[root] aws_instance.ubuntu&#45;ec2&#45;&gt;[root] aws_security_group.ssh&#45;allowed</title>
<path fill="none" stroke="black" d="M719.35,-431.97C761.65,-421.83 815.46,-408.93 859.38,-398.4"/>
<polygon fill="black" stroke="black" points="860.26,-401.78 869.17,-396.05 858.63,-394.98 860.26,-401.78"/>
</g>
<!-- [root] aws_subnet.public -->
<g id="node9" class="node">
<title>[root] aws_subnet.public</title>
<polygon fill="none" stroke="black" points="1177.11,-396 1057.47,-396 1057.47,-360 1177.11,-360 1177.11,-396"/>
<text text-anchor="middle" x="1117.29" y="-373.8" font-family="Times,serif" font-size="14.00">aws_subnet.public</text>
</g>
<!-- [root] aws_instance.ubuntu&#45;ec2&#45;&gt;[root] aws_subnet.public -->
<g id="edge3" class="edge">
<title>[root] aws_instance.ubuntu&#45;ec2&#45;&gt;[root] aws_subnet.public</title>
<path fill="none" stroke="black" d="M726.96,-433.34C729.77,-432.87 732.55,-432.42 735.29,-432 870.85,-411.02 909.29,-420.61 1047.21,-396.26"/>
<polygon fill="black" stroke="black" points="1048.09,-399.66 1057.31,-394.45 1046.85,-392.77 1048.09,-399.66"/>
</g>
<!-- [root] var.aws&#45;ami -->
<g id="node20" class="node">
<title>[root] var.aws&#45;ami</title>
<polygon fill="none" stroke="black" points="712.33,-396 634.25,-396 634.25,-360 718.33,-360 718.33,-390 712.33,-396"/>
<polyline fill="none" stroke="black" points="712.33,-396 712.33,-390 "/>
<polyline fill="none" stroke="black" points="718.33,-390 712.33,-390 "/>
<text text-anchor="middle" x="676.29" y="-373.8" font-family="Times,serif" font-size="14.00">var.aws&#45;ami</text>
</g>
<!-- [root] aws_instance.ubuntu&#45;ec2&#45;&gt;[root] var.aws&#45;ami -->
<g id="edge5" class="edge">
<title>[root] aws_instance.ubuntu&#45;ec2&#45;&gt;[root] var.aws&#45;ami</title>
<path fill="none" stroke="black" d="M655.21,-431.7C658.37,-423.81 662.17,-414.3 665.67,-405.55"/>
<polygon fill="black" stroke="black" points="668.99,-406.69 669.45,-396.1 662.49,-404.09 668.99,-406.69"/>
</g>
<!-- [root] var.ec2_user -->
<g id="node26" class="node">
<title>[root] var.ec2_user</title>
<polygon fill="none" stroke="black" points="816.65,-396 735.93,-396 735.93,-360 822.65,-360 822.65,-390 816.65,-396"/>
<polyline fill="none" stroke="black" points="816.65,-396 816.65,-390 "/>
<polyline fill="none" stroke="black" points="822.65,-390 816.65,-390 "/>
<text text-anchor="middle" x="779.29" y="-373.8" font-family="Times,serif" font-size="14.00">var.ec2_user</text>
</g>
<!-- [root] aws_instance.ubuntu&#45;ec2&#45;&gt;[root] var.ec2_user -->
<g id="edge6" class="edge">
<title>[root] aws_instance.ubuntu&#45;ec2&#45;&gt;[root] var.ec2_user</title>
<path fill="none" stroke="black" d="M680.34,-431.88C697.78,-422.55 719.56,-410.92 738.23,-400.94"/>
<polygon fill="black" stroke="black" points="739.95,-403.99 747.12,-396.19 736.65,-397.82 739.95,-403.99"/>
</g>
<!-- [root] var.ssh_private_key_filepath -->
<g id="node32" class="node">
<title>[root] var.ssh_private_key_filepath</title>
<polygon fill="none" stroke="black" points="170.38,-396 0.21,-396 0.21,-360 176.38,-360 176.38,-390 170.38,-396"/>
<polyline fill="none" stroke="black" points="170.38,-396 170.38,-390 "/>
<polyline fill="none" stroke="black" points="176.38,-390 170.38,-390 "/>
<text text-anchor="middle" x="88.29" y="-373.8" font-family="Times,serif" font-size="14.00">var.ssh_private_key_filepath</text>
</g>
<!-- [root] aws_instance.ubuntu&#45;ec2&#45;&gt;[root] var.ssh_private_key_filepath -->
<g id="edge7" class="edge">
<title>[root] aws_instance.ubuntu&#45;ec2&#45;&gt;[root] var.ssh_private_key_filepath</title>
<path fill="none" stroke="black" d="M569.46,-441.42C479.34,-432.43 327.15,-416.25 186.64,-396.15"/>
<polygon fill="black" stroke="black" points="186.94,-392.66 176.54,-394.7 185.94,-399.59 186.94,-392.66"/>
</g>
<!-- [root] provisioner.remote&#45;exec -->
<g id="node34" class="node">
<title>[root] provisioner.remote&#45;exec</title>
<ellipse fill="none" stroke="black" cx="312.29" cy="-378" rx="118.31" ry="18"/>
<text text-anchor="middle" x="312.29" y="-373.8" font-family="Times,serif" font-size="14.00">[root] provisioner.remote&#45;exec</text>
</g>
<!-- [root] aws_instance.ubuntu&#45;ec2&#45;&gt;[root] provisioner.remote&#45;exec -->
<g id="edge4" class="edge">
<title>[root] aws_instance.ubuntu&#45;ec2&#45;&gt;[root] provisioner.remote&#45;exec</title>
<path fill="none" stroke="black" d="M569.51,-432.59C515.01,-421.23 442.85,-406.2 388.83,-394.95"/>
<polygon fill="black" stroke="black" points="389.47,-391.5 378.97,-392.89 388.04,-398.36 389.47,-391.5"/>
</g>
<!-- [root] aws_internet_gateway.public -->
<g id="node2" class="node">
<title>[root] aws_internet_gateway.public</title>
<polygon fill="none" stroke="black" points="1661.55,-396 1483.03,-396 1483.03,-360 1661.55,-360 1661.55,-396"/>
<text text-anchor="middle" x="1572.29" y="-373.8" font-family="Times,serif" font-size="14.00">aws_internet_gateway.public</text>
</g>
<!-- [root] aws_vpc.default -->
<g id="node10" class="node">
<title>[root] aws_vpc.default</title>
<polygon fill="none" stroke="black" points="1231.15,-324 1123.44,-324 1123.44,-288 1231.15,-288 1231.15,-324"/>
<text text-anchor="middle" x="1177.29" y="-301.8" font-family="Times,serif" font-size="14.00">aws_vpc.default</text>
</g>
<!-- [root] aws_internet_gateway.public&#45;&gt;[root] aws_vpc.default -->
<g id="edge8" class="edge">
<title>[root] aws_internet_gateway.public&#45;&gt;[root] aws_vpc.default</title>
<path fill="none" stroke="black" d="M1482.66,-361.12C1409.09,-348.08 1306.72,-329.94 1241.22,-318.33"/>
<polygon fill="black" stroke="black" points="1241.49,-314.82 1231.04,-316.52 1240.27,-321.72 1241.49,-314.82"/>
</g>
<!-- [root] provider.aws -->
<g id="node16" class="node">
<title>[root] provider.aws</title>
<polygon fill="none" stroke="black" points="1092.29,-252 1013.68,-234 1092.29,-216 1170.9,-234 1092.29,-252"/>
<text text-anchor="middle" x="1092.29" y="-229.8" font-family="Times,serif" font-size="14.00">provider.aws</text>
</g>
<!-- [root] aws_key_pair.ec2&#45;key&#45;pair&#45;&gt;[root] provider.aws -->
<g id="edge9" class="edge">
<title>[root] aws_key_pair.ec2&#45;key&#45;pair&#45;&gt;[root] provider.aws</title>
<path fill="none" stroke="black" d="M599.56,-359.94C715.2,-330.62 948.71,-271.41 1047.03,-246.48"/>
<polygon fill="black" stroke="black" points="1048.11,-249.81 1056.95,-243.96 1046.39,-243.03 1048.11,-249.81"/>
</g>
<!-- [root] var.ssh_public_key -->
<g id="node33" class="node">
<title>[root] var.ssh_public_key</title>
<polygon fill="none" stroke="black" points="588.01,-324 470.58,-324 470.58,-288 594.01,-288 594.01,-318 588.01,-324"/>
<polyline fill="none" stroke="black" points="588.01,-324 588.01,-318 "/>
<polyline fill="none" stroke="black" points="594.01,-318 588.01,-318 "/>
<text text-anchor="middle" x="532.29" y="-301.8" font-family="Times,serif" font-size="14.00">var.ssh_public_key</text>
</g>
<!-- [root] aws_key_pair.ec2&#45;key&#45;pair&#45;&gt;[root] var.ssh_public_key -->
<g id="edge10" class="edge">
<title>[root] aws_key_pair.ec2&#45;key&#45;pair&#45;&gt;[root] var.ssh_public_key</title>
<path fill="none" stroke="black" d="M532.29,-359.7C532.29,-351.98 532.29,-342.71 532.29,-334.11"/>
<polygon fill="black" stroke="black" points="535.79,-334.1 532.29,-324.1 528.79,-334.1 535.79,-334.1"/>
</g>
<!-- [root] aws_main_route_table_association.public -->
<g id="node4" class="node">
<title>[root] aws_main_route_table_association.public</title>
<polygon fill="none" stroke="black" points="1493.73,-468 1242.85,-468 1242.85,-432 1493.73,-432 1493.73,-468"/>
<text text-anchor="middle" x="1368.29" y="-445.8" font-family="Times,serif" font-size="14.00">aws_main_route_table_association.public</text>
</g>
<!-- [root] aws_route_table.public -->
<g id="node6" class="node">
<title>[root] aws_route_table.public</title>
<polygon fill="none" stroke="black" points="1391.53,-396 1245.05,-396 1245.05,-360 1391.53,-360 1391.53,-396"/>
<text text-anchor="middle" x="1318.29" y="-373.8" font-family="Times,serif" font-size="14.00">aws_route_table.public</text>
</g>
<!-- [root] aws_main_route_table_association.public&#45;&gt;[root] aws_route_table.public -->
<g id="edge11" class="edge">
<title>[root] aws_main_route_table_association.public&#45;&gt;[root] aws_route_table.public</title>
<path fill="none" stroke="black" d="M1355.93,-431.7C1350.06,-423.47 1342.92,-413.48 1336.45,-404.42"/>
<polygon fill="black" stroke="black" points="1339.17,-402.21 1330.51,-396.1 1333.47,-406.28 1339.17,-402.21"/>
</g>
<!-- [root] aws_route.internet_gateway -->
<g id="node5" class="node">
<title>[root] aws_route.internet_gateway</title>
<polygon fill="none" stroke="black" points="1685.23,-468 1511.35,-468 1511.35,-432 1685.23,-432 1685.23,-468"/>
<text text-anchor="middle" x="1598.29" y="-445.8" font-family="Times,serif" font-size="14.00">aws_route.internet_gateway</text>
</g>
<!-- [root] aws_route.internet_gateway&#45;&gt;[root] aws_internet_gateway.public -->
<g id="edge12" class="edge">
<title>[root] aws_route.internet_gateway&#45;&gt;[root] aws_internet_gateway.public</title>
<path fill="none" stroke="black" d="M1591.86,-431.7C1588.94,-423.81 1585.4,-414.3 1582.15,-405.55"/>
<polygon fill="black" stroke="black" points="1585.41,-404.26 1578.64,-396.1 1578.85,-406.7 1585.41,-404.26"/>
</g>
<!-- [root] aws_route.internet_gateway&#45;&gt;[root] aws_route_table.public -->
<g id="edge13" class="edge">
<title>[root] aws_route.internet_gateway&#45;&gt;[root] aws_route_table.public</title>
<path fill="none" stroke="black" d="M1530.15,-431.97C1489.84,-421.89 1438.62,-409.08 1396.64,-398.59"/>
<polygon fill="black" stroke="black" points="1397.29,-395.14 1386.73,-396.11 1395.59,-401.93 1397.29,-395.14"/>
</g>
<!-- [root] aws_route_table.public&#45;&gt;[root] aws_vpc.default -->
<g id="edge14" class="edge">
<title>[root] aws_route_table.public&#45;&gt;[root] aws_vpc.default</title>
<path fill="none" stroke="black" d="M1283.8,-359.88C1264.85,-350.47 1241.16,-338.71 1220.94,-328.67"/>
<polygon fill="black" stroke="black" points="1222.43,-325.5 1211.92,-324.19 1219.32,-331.77 1222.43,-325.5"/>
</g>
<!-- [root] aws_route_table_association.public -->
<g id="node7" class="node">
<title>[root] aws_route_table_association.public</title>
<polygon fill="none" stroke="black" points="1225.24,-468 1009.35,-468 1009.35,-432 1225.24,-432 1225.24,-468"/>
<text text-anchor="middle" x="1117.29" y="-445.8" font-family="Times,serif" font-size="14.00">aws_route_table_association.public</text>
</g>
<!-- [root] aws_route_table_association.public&#45;&gt;[root] aws_route_table.public -->
<g id="edge15" class="edge">
<title>[root] aws_route_table_association.public&#45;&gt;[root] aws_route_table.public</title>
<path fill="none" stroke="black" d="M1166.2,-431.97C1194.29,-422.19 1229.75,-409.84 1259.36,-399.52"/>
<polygon fill="black" stroke="black" points="1260.87,-402.71 1269.16,-396.11 1258.56,-396.09 1260.87,-402.71"/>
</g>
<!-- [root] aws_route_table_association.public&#45;&gt;[root] aws_subnet.public -->
<g id="edge16" class="edge">
<title>[root] aws_route_table_association.public&#45;&gt;[root] aws_subnet.public</title>
<path fill="none" stroke="black" d="M1117.29,-431.7C1117.29,-423.98 1117.29,-414.71 1117.29,-406.11"/>
<polygon fill="black" stroke="black" points="1120.79,-406.1 1117.29,-396.1 1113.79,-406.1 1120.79,-406.1"/>
</g>
<!-- [root] aws_security_group.ssh&#45;allowed&#45;&gt;[root] aws_vpc.default -->
<g id="edge17" class="edge">
<title>[root] aws_security_group.ssh&#45;allowed&#45;&gt;[root] aws_vpc.default</title>
<path fill="none" stroke="black" d="M997.97,-359.97C1032.91,-349.65 1077.53,-336.47 1113.52,-325.83"/>
<polygon fill="black" stroke="black" points="1114.83,-329.1 1123.43,-322.91 1112.85,-322.38 1114.83,-329.1"/>
</g>
<!-- [root] aws_subnet.public&#45;&gt;[root] aws_vpc.default -->
<g id="edge18" class="edge">
<title>[root] aws_subnet.public&#45;&gt;[root] aws_vpc.default</title>
<path fill="none" stroke="black" d="M1132.12,-359.7C1139.32,-351.3 1148.09,-341.07 1155.98,-331.86"/>
<polygon fill="black" stroke="black" points="1158.78,-333.97 1162.63,-324.1 1153.47,-329.42 1158.78,-333.97"/>
</g>
<!-- [root] aws_vpc.default&#45;&gt;[root] provider.aws -->
<g id="edge19" class="edge">
<title>[root] aws_vpc.default&#45;&gt;[root] provider.aws</title>
<path fill="none" stroke="black" d="M1156.28,-287.7C1144.18,-277.73 1128.93,-265.17 1116.35,-254.81"/>
<polygon fill="black" stroke="black" points="1118.48,-252.03 1108.53,-248.38 1114.03,-257.43 1118.48,-252.03"/>
</g>
<!-- [root] var.name -->
<g id="node31" class="node">
<title>[root] var.name</title>
<polygon fill="none" stroke="black" points="1249.72,-252 1188.86,-252 1188.86,-216 1255.72,-216 1255.72,-246 1249.72,-252"/>
<polyline fill="none" stroke="black" points="1249.72,-252 1249.72,-246 "/>
<polyline fill="none" stroke="black" points="1255.72,-246 1249.72,-246 "/>
<text text-anchor="middle" x="1222.29" y="-229.8" font-family="Times,serif" font-size="14.00">var.name</text>
</g>
<!-- [root] aws_vpc.default&#45;&gt;[root] var.name -->
<g id="edge20" class="edge">
<title>[root] aws_vpc.default&#45;&gt;[root] var.name</title>
<path fill="none" stroke="black" d="M1188.42,-287.7C1193.65,-279.56 1199.99,-269.69 1205.77,-260.7"/>
<polygon fill="black" stroke="black" points="1208.83,-262.41 1211.3,-252.1 1202.94,-258.62 1208.83,-262.41"/>
</g>
<!-- [root] aws_vpc_endpoint.heroku&#45;pg&#45;privatelink -->
<g id="node11" class="node">
<title>[root] aws_vpc_endpoint.heroku&#45;pg&#45;privatelink</title>
<polygon fill="none" stroke="black" points="992.12,-468 744.46,-468 744.46,-432 992.12,-432 992.12,-468"/>
<text text-anchor="middle" x="868.29" y="-445.8" font-family="Times,serif" font-size="14.00">aws_vpc_endpoint.heroku&#45;pg&#45;privatelink</text>
</g>
<!-- [root] aws_vpc_endpoint.heroku&#45;pg&#45;privatelink&#45;&gt;[root] aws_security_group.ssh&#45;allowed -->
<g id="edge21" class="edge">
<title>[root] aws_vpc_endpoint.heroku&#45;pg&#45;privatelink&#45;&gt;[root] aws_security_group.ssh&#45;allowed</title>
<path fill="none" stroke="black" d="M886.09,-431.7C894.9,-423.14 905.67,-412.66 915.29,-403.3"/>
<polygon fill="black" stroke="black" points="917.97,-405.58 922.7,-396.1 913.09,-400.57 917.97,-405.58"/>
</g>
<!-- [root] aws_vpc_endpoint.heroku&#45;pg&#45;privatelink&#45;&gt;[root] aws_subnet.public -->
<g id="edge22" class="edge">
<title>[root] aws_vpc_endpoint.heroku&#45;pg&#45;privatelink&#45;&gt;[root] aws_subnet.public</title>
<path fill="none" stroke="black" d="M928.89,-431.97C964.7,-421.9 1010.19,-409.11 1047.5,-398.62"/>
<polygon fill="black" stroke="black" points="1048.61,-401.94 1057.29,-395.87 1046.71,-395.21 1048.61,-401.94"/>
</g>
<!-- [root] null_resource.private_postgres_endpoint_service -->
<g id="node15" class="node">
<title>[root] null_resource.private_postgres_endpoint_service</title>
<polygon fill="none" stroke="black" points="2031.65,-396 1740.93,-396 1740.93,-360 2031.65,-360 2031.65,-396"/>
<text text-anchor="middle" x="1886.29" y="-373.8" font-family="Times,serif" font-size="14.00">null_resource.private_postgres_endpoint_service</text>
</g>
<!-- [root] aws_vpc_endpoint.heroku&#45;pg&#45;privatelink&#45;&gt;[root] null_resource.private_postgres_endpoint_service -->
<g id="edge23" class="edge">
<title>[root] aws_vpc_endpoint.heroku&#45;pg&#45;privatelink&#45;&gt;[root] null_resource.private_postgres_endpoint_service</title>
<path fill="none" stroke="black" d="M992.27,-432.76C994.97,-432.49 997.65,-432.24 1000.29,-432 1297.27,-404.94 1372.74,-415.7 1670.29,-396 1689.8,-394.71 1710.29,-393.24 1730.55,-391.72"/>
<polygon fill="black" stroke="black" points="1731.09,-395.19 1740.8,-390.95 1730.57,-388.21 1731.09,-395.19"/>
</g>
<!-- [root] heroku_addon.private_postgres_example -->
<g id="node12" class="node">
<title>[root] heroku_addon.private_postgres_example</title>
<polygon fill="none" stroke="black" points="1709.33,-324 1463.25,-324 1463.25,-288 1709.33,-288 1709.33,-324"/>
<text text-anchor="middle" x="1586.29" y="-301.8" font-family="Times,serif" font-size="14.00">heroku_addon.private_postgres_example</text>
</g>
<!-- [root] heroku_app.example -->
<g id="node13" class="node">
<title>[root] heroku_app.example</title>
<polygon fill="none" stroke="black" points="1591.8,-252 1458.78,-252 1458.78,-216 1591.8,-216 1591.8,-252"/>
<text text-anchor="middle" x="1525.29" y="-229.8" font-family="Times,serif" font-size="14.00">heroku_app.example</text>
</g>
<!-- [root] heroku_addon.private_postgres_example&#45;&gt;[root] heroku_app.example -->
<g id="edge24" class="edge">
<title>[root] heroku_addon.private_postgres_example&#45;&gt;[root] heroku_app.example</title>
<path fill="none" stroke="black" d="M1571.21,-287.7C1563.9,-279.3 1554.98,-269.07 1546.96,-259.86"/>
<polygon fill="black" stroke="black" points="1549.41,-257.34 1540.2,-252.1 1544.13,-261.94 1549.41,-257.34"/>
</g>
<!-- [root] heroku_space.example -->
<g id="node14" class="node">
<title>[root] heroku_space.example</title>
<polygon fill="none" stroke="black" points="1597.18,-180 1453.4,-180 1453.4,-144 1597.18,-144 1597.18,-180"/>
<text text-anchor="middle" x="1525.29" y="-157.8" font-family="Times,serif" font-size="14.00">heroku_space.example</text>
</g>
<!-- [root] heroku_app.example&#45;&gt;[root] heroku_space.example -->
<g id="edge25" class="edge">
<title>[root] heroku_app.example&#45;&gt;[root] heroku_space.example</title>
<path fill="none" stroke="black" d="M1525.29,-215.7C1525.29,-207.98 1525.29,-198.71 1525.29,-190.11"/>
<polygon fill="black" stroke="black" points="1528.79,-190.1 1525.29,-180.1 1521.79,-190.1 1528.79,-190.1"/>
</g>
<!-- [root] var.app_name -->
<g id="node19" class="node">
<title>[root] var.app_name</title>
<polygon fill="none" stroke="black" points="1429.43,-180 1341.15,-180 1341.15,-144 1435.43,-144 1435.43,-174 1429.43,-180"/>
<polyline fill="none" stroke="black" points="1429.43,-180 1429.43,-174 "/>
<polyline fill="none" stroke="black" points="1435.43,-174 1429.43,-174 "/>
<text text-anchor="middle" x="1388.29" y="-157.8" font-family="Times,serif" font-size="14.00">var.app_name</text>
</g>
<!-- [root] heroku_app.example&#45;&gt;[root] var.app_name -->
<g id="edge26" class="edge">
<title>[root] heroku_app.example&#45;&gt;[root] var.app_name</title>
<path fill="none" stroke="black" d="M1491.78,-215.88C1473.45,-206.51 1450.56,-194.81 1430.96,-184.8"/>
<polygon fill="black" stroke="black" points="1432.43,-181.62 1421.93,-180.19 1429.25,-187.86 1432.43,-181.62"/>
</g>
<!-- [root] provider.heroku -->
<g id="node17" class="node">
<title>[root] provider.heroku</title>
<polygon fill="none" stroke="black" points="1511.29,-108 1417.62,-90 1511.29,-72 1604.96,-90 1511.29,-108"/>
<text text-anchor="middle" x="1511.29" y="-85.8" font-family="Times,serif" font-size="14.00">provider.heroku</text>
</g>
<!-- [root] heroku_space.example&#45;&gt;[root] provider.heroku -->
<g id="edge27" class="edge">
<title>[root] heroku_space.example&#45;&gt;[root] provider.heroku</title>
<path fill="none" stroke="black" d="M1521.83,-143.7C1520.25,-135.78 1518.34,-126.23 1516.58,-117.44"/>
<polygon fill="black" stroke="black" points="1520.01,-116.74 1514.62,-107.62 1513.15,-118.11 1520.01,-116.74"/>
</g>
<!-- [root] var.aws_region -->
<g id="node23" class="node">
<title>[root] var.aws_region</title>
<polygon fill="none" stroke="black" points="1202.94,-108 1107.64,-108 1107.64,-72 1208.94,-72 1208.94,-102 1202.94,-108"/>
<polyline fill="none" stroke="black" points="1202.94,-108 1202.94,-102 "/>
<polyline fill="none" stroke="black" points="1208.94,-102 1202.94,-102 "/>
<text text-anchor="middle" x="1158.29" y="-85.8" font-family="Times,serif" font-size="14.00">var.aws_region</text>
</g>
<!-- [root] heroku_space.example&#45;&gt;[root] var.aws_region -->
<g id="edge28" class="edge">
<title>[root] heroku_space.example&#45;&gt;[root] var.aws_region</title>
<path fill="none" stroke="black" d="M1453.33,-145.74C1450.28,-145.14 1447.26,-144.56 1444.29,-144 1349.52,-126.09 1324.83,-127.09 1230.29,-108 1226.61,-107.26 1222.84,-106.46 1219.03,-105.64"/>
<polygon fill="black" stroke="black" points="1219.46,-102.15 1208.94,-103.4 1217.95,-108.98 1219.46,-102.15"/>
</g>
<!-- [root] var.aws_to_heroku_private_region -->
<g id="node25" class="node">
<title>[root] var.aws_to_heroku_private_region</title>
<polygon fill="none" stroke="black" points="1827.57,-108 1623.01,-108 1623.01,-72 1833.57,-72 1833.57,-102 1827.57,-108"/>
<polyline fill="none" stroke="black" points="1827.57,-108 1827.57,-102 "/>
<polyline fill="none" stroke="black" points="1833.57,-102 1827.57,-102 "/>
<text text-anchor="middle" x="1728.29" y="-85.8" font-family="Times,serif" font-size="14.00">var.aws_to_heroku_private_region</text>
</g>
<!-- [root] heroku_space.example&#45;&gt;[root] var.aws_to_heroku_private_region -->
<g id="edge29" class="edge">
<title>[root] heroku_space.example&#45;&gt;[root] var.aws_to_heroku_private_region</title>
<path fill="none" stroke="black" d="M1574.69,-143.97C1603.18,-134.14 1639.18,-121.73 1669.16,-111.39"/>
<polygon fill="black" stroke="black" points="1670.36,-114.68 1678.67,-108.11 1668.08,-108.06 1670.36,-114.68"/>
</g>
<!-- [root] var.heroku_enterprise_team -->
<g id="node29" class="node">
<title>[root] var.heroku_enterprise_team</title>
<polygon fill="none" stroke="black" points="2017.18,-108 1851.4,-108 1851.4,-72 2023.18,-72 2023.18,-102 2017.18,-108"/>
<polyline fill="none" stroke="black" points="2017.18,-108 2017.18,-102 "/>
<polyline fill="none" stroke="black" points="2023.18,-102 2017.18,-102 "/>
<text text-anchor="middle" x="1937.29" y="-85.8" font-family="Times,serif" font-size="14.00">var.heroku_enterprise_team</text>
</g>
<!-- [root] heroku_space.example&#45;&gt;[root] var.heroku_enterprise_team -->
<g id="edge30" class="edge">
<title>[root] heroku_space.example&#45;&gt;[root] var.heroku_enterprise_team</title>
<path fill="none" stroke="black" d="M1597.41,-149.18C1659.36,-138.98 1751.37,-123.69 1841.24,-108.17"/>
<polygon fill="black" stroke="black" points="1842.08,-111.58 1851.34,-106.43 1840.89,-104.68 1842.08,-111.58"/>
</g>
<!-- [root] var.heroku_private_space -->
<g id="node30" class="node">
<title>[root] var.heroku_private_space</title>
<polygon fill="none" stroke="black" points="1393.24,-108 1239.35,-108 1239.35,-72 1399.24,-72 1399.24,-102 1393.24,-108"/>
<polyline fill="none" stroke="black" points="1393.24,-108 1393.24,-102 "/>
<polyline fill="none" stroke="black" points="1399.24,-102 1393.24,-102 "/>
<text text-anchor="middle" x="1319.29" y="-85.8" font-family="Times,serif" font-size="14.00">var.heroku_private_space</text>
</g>
<!-- [root] heroku_space.example&#45;&gt;[root] var.heroku_private_space -->
<g id="edge31" class="edge">
<title>[root] heroku_space.example&#45;&gt;[root] var.heroku_private_space</title>
<path fill="none" stroke="black" d="M1475.16,-143.97C1446.25,-134.14 1409.72,-121.73 1379.29,-111.39"/>
<polygon fill="black" stroke="black" points="1380.24,-108.01 1369.65,-108.11 1377.99,-114.64 1380.24,-108.01"/>
</g>
<!-- [root] null_resource.private_postgres_endpoint_service&#45;&gt;[root] heroku_addon.private_postgres_example -->
<g id="edge37" class="edge">
<title>[root] null_resource.private_postgres_endpoint_service&#45;&gt;[root] heroku_addon.private_postgres_example</title>
<path fill="none" stroke="black" d="M1813.29,-359.97C1769.74,-349.8 1714.32,-336.87 1669.13,-326.33"/>
<polygon fill="black" stroke="black" points="1669.9,-322.91 1659.36,-324.05 1668.31,-329.73 1669.9,-322.91"/>
</g>
<!-- [root] provider.null -->
<g id="node18" class="node">
<title>[root] provider.null</title>
<polygon fill="none" stroke="black" points="1806.29,-324 1727.67,-306 1806.29,-288 1884.91,-306 1806.29,-324"/>
<text text-anchor="middle" x="1806.29" y="-301.8" font-family="Times,serif" font-size="14.00">provider.null</text>
</g>
<!-- [root] null_resource.private_postgres_endpoint_service&#45;&gt;[root] provider.null -->
<g id="edge38" class="edge">
<title>[root] null_resource.private_postgres_endpoint_service&#45;&gt;[root] provider.null</title>
<path fill="none" stroke="black" d="M1866.52,-359.7C1855.31,-349.89 1841.24,-337.58 1829.51,-327.32"/>
<polygon fill="black" stroke="black" points="1831.66,-324.55 1821.83,-320.6 1827.05,-329.82 1831.66,-324.55"/>
</g>
<!-- [root] var.aws_account_id -->
<g id="node22" class="node">
<title>[root] var.aws_account_id</title>
<polygon fill="none" stroke="black" points="2023.6,-324 1902.99,-324 1902.99,-288 2029.6,-288 2029.6,-318 2023.6,-324"/>
<polyline fill="none" stroke="black" points="2023.6,-324 2023.6,-318 "/>
<polyline fill="none" stroke="black" points="2029.6,-318 2023.6,-318 "/>
<text text-anchor="middle" x="1966.29" y="-301.8" font-family="Times,serif" font-size="14.00">var.aws_account_id</text>
</g>
<!-- [root] null_resource.private_postgres_endpoint_service&#45;&gt;[root] var.aws_account_id -->
<g id="edge40" class="edge">
<title>[root] null_resource.private_postgres_endpoint_service&#45;&gt;[root] var.aws_account_id</title>
<path fill="none" stroke="black" d="M1906.07,-359.7C1916.05,-350.97 1928.3,-340.24 1939.15,-330.75"/>
<polygon fill="black" stroke="black" points="1941.52,-333.32 1946.74,-324.1 1936.91,-328.06 1941.52,-333.32"/>
</g>
<!-- [root] provisioner.local&#45;exec -->
<g id="node36" class="node">
<title>[root] provisioner.local&#45;exec</title>
<ellipse fill="none" stroke="black" cx="2158.29" cy="-306" rx="110.58" ry="18"/>
<text text-anchor="middle" x="2158.29" y="-301.8" font-family="Times,serif" font-size="14.00">[root] provisioner.local&#45;exec</text>
</g>
<!-- [root] null_resource.private_postgres_endpoint_service&#45;&gt;[root] provisioner.local&#45;exec -->
<g id="edge39" class="edge">
<title>[root] null_resource.private_postgres_endpoint_service&#45;&gt;[root] provisioner.local&#45;exec</title>
<path fill="none" stroke="black" d="M1952.48,-359.97C1994.85,-349.06 2049.61,-334.97 2091.99,-324.06"/>
<polygon fill="black" stroke="black" points="2093.12,-327.39 2101.94,-321.5 2091.38,-320.61 2093.12,-327.39"/>
</g>
<!-- [root] var.aws_access_key -->
<g id="node21" class="node">
<title>[root] var.aws_access_key</title>
<polygon fill="none" stroke="black" points="1098.64,-180 975.94,-180 975.94,-144 1104.64,-144 1104.64,-174 1098.64,-180"/>
<polyline fill="none" stroke="black" points="1098.64,-180 1098.64,-174 "/>
<polyline fill="none" stroke="black" points="1104.64,-174 1098.64,-174 "/>
<text text-anchor="middle" x="1040.29" y="-157.8" font-family="Times,serif" font-size="14.00">var.aws_access_key</text>
</g>
<!-- [root] provider.aws&#45;&gt;[root] var.aws_access_key -->
<g id="edge46" class="edge">
<title>[root] provider.aws&#45;&gt;[root] var.aws_access_key</title>
<path fill="none" stroke="black" d="M1081.26,-218.15C1074.79,-209.44 1066.43,-198.19 1058.96,-188.13"/>
<polygon fill="black" stroke="black" points="1061.72,-185.98 1052.95,-180.04 1056.1,-190.15 1061.72,-185.98"/>
</g>
<!-- [root] provider.aws&#45;&gt;[root] var.aws_region -->
<g id="edge47" class="edge">
<title>[root] provider.aws&#45;&gt;[root] var.aws_region</title>
<path fill="none" stroke="black" d="M1099.48,-217.53C1110.65,-193.51 1132.29,-146.93 1145.98,-117.48"/>
<polygon fill="black" stroke="black" points="1149.25,-118.75 1150.29,-108.21 1142.9,-115.8 1149.25,-118.75"/>
</g>
<!-- [root] var.aws_secret_key -->
<g id="node24" class="node">
<title>[root] var.aws_secret_key</title>
<polygon fill="none" stroke="black" points="1280.03,-180 1160.55,-180 1160.55,-144 1286.03,-144 1286.03,-174 1280.03,-180"/>
<polyline fill="none" stroke="black" points="1280.03,-180 1280.03,-174 "/>
<polyline fill="none" stroke="black" points="1286.03,-174 1280.03,-174 "/>
<text text-anchor="middle" x="1223.29" y="-157.8" font-family="Times,serif" font-size="14.00">var.aws_secret_key</text>
</g>
<!-- [root] provider.aws&#45;&gt;[root] var.aws_secret_key -->
<g id="edge48" class="edge">
<title>[root] provider.aws&#45;&gt;[root] var.aws_secret_key</title>
<path fill="none" stroke="black" d="M1114.81,-220.97C1133.33,-211.07 1160.05,-196.79 1182.34,-184.88"/>
<polygon fill="black" stroke="black" points="1184.1,-187.91 1191.27,-180.11 1180.8,-181.74 1184.1,-187.91"/>
</g>
<!-- [root] var.heroku_api_key -->
<g id="node27" class="node">
<title>[root] var.heroku_api_key</title>
<polygon fill="none" stroke="black" points="1499.6,-36 1378.99,-36 1378.99,0 1505.6,0 1505.6,-30 1499.6,-36"/>
<polyline fill="none" stroke="black" points="1499.6,-36 1499.6,-30 "/>
<polyline fill="none" stroke="black" points="1505.6,-30 1499.6,-30 "/>
<text text-anchor="middle" x="1442.29" y="-13.8" font-family="Times,serif" font-size="14.00">var.heroku_api_key</text>
</g>
<!-- [root] provider.heroku&#45;&gt;[root] var.heroku_api_key -->
<g id="edge50" class="edge">
<title>[root] provider.heroku&#45;&gt;[root] var.heroku_api_key</title>
<path fill="none" stroke="black" d="M1496.99,-74.5C1488.16,-65.54 1476.61,-53.81 1466.39,-43.45"/>
<polygon fill="black" stroke="black" points="1468.76,-40.87 1459.25,-36.2 1463.78,-45.78 1468.76,-40.87"/>
</g>
<!-- [root] var.heroku_email -->
<g id="node28" class="node">
<title>[root] var.heroku_email</title>
<polygon fill="none" stroke="black" points="1630.88,-36 1523.71,-36 1523.71,0 1636.88,0 1636.88,-30 1630.88,-36"/>
<polyline fill="none" stroke="black" points="1630.88,-36 1630.88,-30 "/>
<polyline fill="none" stroke="black" points="1636.88,-30 1630.88,-30 "/>
<text text-anchor="middle" x="1580.29" y="-13.8" font-family="Times,serif" font-size="14.00">var.heroku_email</text>
</g>
<!-- [root] provider.heroku&#45;&gt;[root] var.heroku_email -->
<g id="edge51" class="edge">
<title>[root] provider.heroku&#45;&gt;[root] var.heroku_email</title>
<path fill="none" stroke="black" d="M1525.59,-74.5C1534.42,-65.54 1545.98,-53.81 1556.19,-43.45"/>
<polygon fill="black" stroke="black" points="1558.81,-45.78 1563.33,-36.2 1553.82,-40.87 1558.81,-45.78"/>
</g>
<!-- [root] meta.count&#45;boundary (EachMode fixup) -->
<g id="node35" class="node">
<title>[root] meta.count&#45;boundary (EachMode fixup)</title>
<ellipse fill="none" stroke="black" cx="1367.29" cy="-522" rx="174.79" ry="18"/>
<text text-anchor="middle" x="1367.29" y="-517.8" font-family="Times,serif" font-size="14.00">[root] meta.count&#45;boundary (EachMode fixup)</text>
</g>
<!-- [root] meta.count&#45;boundary (EachMode fixup)&#45;&gt;[root] aws_instance.ubuntu&#45;ec2 -->
<g id="edge32" class="edge">
<title>[root] meta.count&#45;boundary (EachMode fixup)&#45;&gt;[root] aws_instance.ubuntu&#45;ec2</title>
<path fill="none" stroke="black" d="M1243.1,-509.32C1223.1,-507.5 1202.63,-505.67 1183.29,-504 987.58,-487.1 934.92,-494.93 737.09,-468.17"/>
<polygon fill="black" stroke="black" points="737.33,-464.67 726.95,-466.78 736.38,-471.6 737.33,-464.67"/>
</g>
<!-- [root] meta.count&#45;boundary (EachMode fixup)&#45;&gt;[root] aws_main_route_table_association.public -->
<g id="edge33" class="edge">
<title>[root] meta.count&#45;boundary (EachMode fixup)&#45;&gt;[root] aws_main_route_table_association.public</title>
<path fill="none" stroke="black" d="M1367.54,-503.7C1367.65,-495.98 1367.78,-486.71 1367.9,-478.11"/>
<polygon fill="black" stroke="black" points="1371.4,-478.15 1368.05,-468.1 1364.4,-478.05 1371.4,-478.15"/>
</g>
<!-- [root] meta.count&#45;boundary (EachMode fixup)&#45;&gt;[root] aws_route.internet_gateway -->
<g id="edge34" class="edge">
<title>[root] meta.count&#45;boundary (EachMode fixup)&#45;&gt;[root] aws_route.internet_gateway</title>
<path fill="none" stroke="black" d="M1420.58,-504.85C1453.83,-494.78 1496.88,-481.73 1532.28,-471"/>
<polygon fill="black" stroke="black" points="1533.5,-474.29 1542.05,-468.04 1531.47,-467.59 1533.5,-474.29"/>
</g>
<!-- [root] meta.count&#45;boundary (EachMode fixup)&#45;&gt;[root] aws_route_table_association.public -->
<g id="edge35" class="edge">
<title>[root] meta.count&#45;boundary (EachMode fixup)&#45;&gt;[root] aws_route_table_association.public</title>
<path fill="none" stroke="black" d="M1309.94,-504.94C1273.81,-494.83 1226.9,-481.69 1188.41,-470.91"/>
<polygon fill="black" stroke="black" points="1188.88,-467.41 1178.31,-468.08 1186.99,-474.15 1188.88,-467.41"/>
</g>
<!-- [root] meta.count&#45;boundary (EachMode fixup)&#45;&gt;[root] aws_vpc_endpoint.heroku&#45;pg&#45;privatelink -->
<g id="edge36" class="edge">
<title>[root] meta.count&#45;boundary (EachMode fixup)&#45;&gt;[root] aws_vpc_endpoint.heroku&#45;pg&#45;privatelink</title>
<path fill="none" stroke="black" d="M1268.41,-507.13C1191.55,-496.35 1084.22,-481.29 1000.07,-469.49"/>
<polygon fill="black" stroke="black" points="1000.31,-465.99 989.93,-468.06 999.34,-472.92 1000.31,-465.99"/>
</g>
<!-- [root] provider.aws (close) -->
<g id="node37" class="node">
<title>[root] provider.aws (close)</title>
<ellipse fill="none" stroke="black" cx="1070.29" cy="-522" rx="104.33" ry="18"/>
<text text-anchor="middle" x="1070.29" y="-517.8" font-family="Times,serif" font-size="14.00">[root] provider.aws (close)</text>
</g>
<!-- [root] provider.aws (close)&#45;&gt;[root] aws_instance.ubuntu&#45;ec2 -->
<g id="edge41" class="edge">
<title>[root] provider.aws (close)&#45;&gt;[root] aws_instance.ubuntu&#45;ec2</title>
<path fill="none" stroke="black" d="M993.99,-509.73C928.33,-499.85 830.81,-484.73 736.94,-468.26"/>
<polygon fill="black" stroke="black" points="737.44,-464.8 726.99,-466.51 736.23,-471.69 737.44,-464.8"/>
</g>
<!-- [root] provider.aws (close)&#45;&gt;[root] aws_main_route_table_association.public -->
<g id="edge42" class="edge">
<title>[root] provider.aws (close)&#45;&gt;[root] aws_main_route_table_association.public</title>
<path fill="none" stroke="black" d="M1129.52,-507.09C1174.32,-496.56 1236.37,-481.99 1285.99,-470.33"/>
<polygon fill="black" stroke="black" points="1286.8,-473.74 1295.74,-468.04 1285.2,-466.92 1286.8,-473.74"/>
</g>
<!-- [root] provider.aws (close)&#45;&gt;[root] aws_route.internet_gateway -->
<g id="edge43" class="edge">
<title>[root] provider.aws (close)&#45;&gt;[root] aws_route.internet_gateway</title>
<path fill="none" stroke="black" d="M1145,-509.36C1157.76,-507.49 1170.9,-505.63 1183.29,-504 1321.57,-485.8 1359.4,-488.32 1501.5,-468.06"/>
<polygon fill="black" stroke="black" points="1502.07,-471.52 1511.47,-466.63 1501.07,-464.59 1502.07,-471.52"/>
</g>
<!-- [root] provider.aws (close)&#45;&gt;[root] aws_route_table_association.public -->
<g id="edge44" class="edge">
<title>[root] provider.aws (close)&#45;&gt;[root] aws_route_table_association.public</title>
<path fill="none" stroke="black" d="M1081.67,-504.05C1087.19,-495.84 1093.93,-485.79 1100.06,-476.66"/>
<polygon fill="black" stroke="black" points="1103.02,-478.53 1105.69,-468.28 1097.21,-474.63 1103.02,-478.53"/>
</g>
<!-- [root] provider.aws (close)&#45;&gt;[root] aws_vpc_endpoint.heroku&#45;pg&#45;privatelink -->
<g id="edge45" class="edge">
<title>[root] provider.aws (close)&#45;&gt;[root] aws_vpc_endpoint.heroku&#45;pg&#45;privatelink</title>
<path fill="none" stroke="black" d="M1025.96,-505.64C996.91,-495.57 958.62,-482.3 927.04,-471.36"/>
<polygon fill="black" stroke="black" points="928.07,-468.01 917.48,-468.04 925.78,-474.63 928.07,-468.01"/>
</g>
<!-- [root] provider.heroku (close) -->
<g id="node38" class="node">
<title>[root] provider.heroku (close)</title>
<ellipse fill="none" stroke="black" cx="1675.29" cy="-522" rx="114.94" ry="18"/>
<text text-anchor="middle" x="1675.29" y="-517.8" font-family="Times,serif" font-size="14.00">[root] provider.heroku (close)</text>
</g>
<!-- [root] provider.heroku (close)&#45;&gt;[root] heroku_addon.private_postgres_example -->
<g id="edge49" class="edge">
<title>[root] provider.heroku (close)&#45;&gt;[root] heroku_addon.private_postgres_example</title>
<path fill="none" stroke="black" d="M1683.18,-503.75C1687.4,-493.58 1692.15,-480.33 1694.29,-468 1702.71,-419.56 1700.63,-398.7 1670.29,-360 1660.52,-347.53 1646.94,-337.19 1633.55,-329.05"/>
<polygon fill="black" stroke="black" points="1635.23,-325.97 1624.82,-324.02 1631.73,-332.04 1635.23,-325.97"/>
</g>
<!-- [root] provider.null (close) -->
<g id="node39" class="node">
<title>[root] provider.null (close)</title>
<ellipse fill="none" stroke="black" cx="1848.29" cy="-450" rx="104.34" ry="18"/>
<text text-anchor="middle" x="1848.29" y="-445.8" font-family="Times,serif" font-size="14.00">[root] provider.null (close)</text>
</g>
<!-- [root] provider.null (close)&#45;&gt;[root] null_resource.private_postgres_endpoint_service -->
<g id="edge52" class="edge">
<title>[root] provider.null (close)&#45;&gt;[root] null_resource.private_postgres_endpoint_service</title>
<path fill="none" stroke="black" d="M1857.49,-432.05C1861.86,-424.01 1867.18,-414.2 1872.05,-405.23"/>
<polygon fill="black" stroke="black" points="1875.22,-406.73 1876.91,-396.28 1869.07,-403.39 1875.22,-406.73"/>
</g>
<!-- [root] provisioner.local&#45;exec (close) -->
<g id="node40" class="node">
<title>[root] provisioner.local&#45;exec (close)</title>
<ellipse fill="none" stroke="black" cx="1983.29" cy="-522" rx="137.12" ry="18"/>
<text text-anchor="middle" x="1983.29" y="-517.8" font-family="Times,serif" font-size="14.00">[root] provisioner.local&#45;exec (close)</text>
</g>
<!-- [root] provisioner.local&#45;exec (close)&#45;&gt;[root] null_resource.private_postgres_endpoint_service -->
<g id="edge53" class="edge">
<title>[root] provisioner.local&#45;exec (close)&#45;&gt;[root] null_resource.private_postgres_endpoint_service</title>
<path fill="none" stroke="black" d="M1982.57,-503.83C1981.02,-484.77 1976.19,-453.82 1961.29,-432 1953.12,-420.03 1941.29,-409.87 1929.43,-401.75"/>
<polygon fill="black" stroke="black" points="1931.14,-398.69 1920.84,-396.21 1927.35,-404.57 1931.14,-398.69"/>
</g>
<!-- [root] provisioner.remote&#45;exec (close) -->
<g id="node41" class="node">
<title>[root] provisioner.remote&#45;exec (close)</title>
<ellipse fill="none" stroke="black" cx="729.29" cy="-522" rx="144.35" ry="18"/>
<text text-anchor="middle" x="729.29" y="-517.8" font-family="Times,serif" font-size="14.00">[root] provisioner.remote&#45;exec (close)</text>
</g>
<!-- [root] provisioner.remote&#45;exec (close)&#45;&gt;[root] aws_instance.ubuntu&#45;ec2 -->
<g id="edge54" class="edge">
<title>[root] provisioner.remote&#45;exec (close)&#45;&gt;[root] aws_instance.ubuntu&#45;ec2</title>
<path fill="none" stroke="black" d="M709.68,-504.05C699.51,-495.26 686.92,-484.38 675.79,-474.76"/>
<polygon fill="black" stroke="black" points="677.85,-471.92 668,-468.03 673.28,-477.22 677.85,-471.92"/>
</g>
<!-- [root] root -->
<g id="node42" class="node">
<title>[root] root</title>
<ellipse fill="none" stroke="black" cx="1521.29" cy="-594" rx="46.9" ry="18"/>
<text text-anchor="middle" x="1521.29" y="-589.8" font-family="Times,serif" font-size="14.00">[root] root</text>
</g>
<!-- [root] root&#45;&gt;[root] meta.count&#45;boundary (EachMode fixup) -->
<g id="edge55" class="edge">
<title>[root] root&#45;&gt;[root] meta.count&#45;boundary (EachMode fixup)</title>
<path fill="none" stroke="black" d="M1492.33,-579.83C1470.05,-569.71 1438.86,-555.53 1413.2,-543.87"/>
<polygon fill="black" stroke="black" points="1414.57,-540.65 1404.02,-539.7 1411.68,-547.02 1414.57,-540.65"/>
</g>
<!-- [root] root&#45;&gt;[root] provider.aws (close) -->
<g id="edge56" class="edge">
<title>[root] root&#45;&gt;[root] provider.aws (close)</title>
<path fill="none" stroke="black" d="M1478.86,-586.41C1404.95,-574.94 1251.28,-551.09 1154.9,-536.13"/>
<polygon fill="black" stroke="black" points="1155.3,-532.65 1144.89,-534.58 1154.23,-539.57 1155.3,-532.65"/>
</g>
<!-- [root] root&#45;&gt;[root] provider.heroku (close) -->
<g id="edge57" class="edge">
<title>[root] root&#45;&gt;[root] provider.heroku (close)</title>
<path fill="none" stroke="black" d="M1550.26,-579.83C1572.84,-569.57 1604.6,-555.13 1630.46,-543.38"/>
<polygon fill="black" stroke="black" points="1632.03,-546.51 1639.69,-539.18 1629.14,-540.14 1632.03,-546.51"/>
</g>
<!-- [root] root&#45;&gt;[root] provider.null (close) -->
<g id="edge58" class="edge">
<title>[root] root&#45;&gt;[root] provider.null (close)</title>
<path fill="none" stroke="black" d="M1566.49,-589.06C1635.45,-582.27 1762.76,-566.52 1799.29,-540 1820.17,-524.84 1833.19,-497.95 1840.51,-477.68"/>
<polygon fill="black" stroke="black" points="1843.88,-478.65 1843.75,-468.06 1837.24,-476.42 1843.88,-478.65"/>
</g>
<!-- [root] root&#45;&gt;[root] provisioner.local&#45;exec (close) -->
<g id="edge59" class="edge">
<title>[root] root&#45;&gt;[root] provisioner.local&#45;exec (close)</title>
<path fill="none" stroke="black" d="M1563.93,-586.54C1636.92,-575.48 1787.57,-552.65 1887.01,-537.59"/>
<polygon fill="black" stroke="black" points="1887.71,-541.02 1897.07,-536.06 1886.66,-534.1 1887.71,-541.02"/>
</g>
<!-- [root] root&#45;&gt;[root] provisioner.remote&#45;exec (close) -->
<g id="edge60" class="edge">
<title>[root] root&#45;&gt;[root] provisioner.remote&#45;exec (close)</title>
<path fill="none" stroke="black" d="M1476.15,-589.01C1357.38,-578.51 1032.96,-549.84 853.24,-533.96"/>
<polygon fill="black" stroke="black" points="853.48,-530.46 843.21,-533.07 852.86,-537.44 853.48,-530.46"/>
</g>
</g>
</svg>
