<?xml version="1.0" encoding="UTF-8" standalone="no"?>
<!DOCTYPE svg PUBLIC "-//W3C//DTD SVG 1.1//EN"
 "http://www.w3.org/Graphics/SVG/1.1/DTD/svg11.dtd">
<!-- Generated by graphviz version 2.43.0 (0)
 -->
<!-- Title: %3 Pages: 1 -->
<svg width="2343pt" height="620pt"
 viewBox="0.00 0.00 2343.40 620.00" xmlns="http://www.w3.org/2000/svg" xmlns:xlink="http://www.w3.org/1999/xlink">
<g id="graph0" class="graph" transform="scale(1 1) rotate(0) translate(4 616)">
<title>%3</title>
<polygon fill="white" stroke="transparent" points="-4,4 -4,-616 2339.4,-616 2339.4,4 -4,4"/>
<!-- [root] aws_instance.ubuntu&#45;ec2 -->
<g id="node1" class="node">
<title>[root] aws_instance.ubuntu&#45;ec2</title>
<polygon fill="none" stroke="black" points="788.23,-468 630.99,-468 630.99,-432 788.23,-432 788.23,-468"/>
<text text-anchor="middle" x="709.61" y="-445.8" font-family="Times,serif" font-size="14.00">aws_instance.ubuntu&#45;ec2</text>
</g>
<!-- [root] aws_key_pair.ec2&#45;key&#45;pair -->
<g id="node3" class="node">
<title>[root] aws_key_pair.ec2&#45;key&#45;pair</title>
<polygon fill="none" stroke="black" points="167.33,-396 -0.11,-396 -0.11,-360 167.33,-360 167.33,-396"/>
<text text-anchor="middle" x="83.61" y="-373.8" font-family="Times,serif" font-size="14.00">aws_key_pair.ec2&#45;key&#45;pair</text>
</g>
<!-- [root] aws_instance.ubuntu&#45;ec2&#45;&gt;[root] aws_key_pair.ec2&#45;key&#45;pair -->
<g id="edge1" class="edge">
<title>[root] aws_instance.ubuntu&#45;ec2&#45;&gt;[root] aws_key_pair.ec2&#45;key&#45;pair</title>
<path fill="none" stroke="black" d="M630.8,-443.19C528.6,-435.2 344.65,-419.27 177.43,-396.05"/>
<polygon fill="black" stroke="black" points="177.85,-392.57 167.46,-394.65 176.88,-399.51 177.85,-392.57"/>
</g>
<!-- [root] aws_security_group.ssh&#45;allowed -->
<g id="node9" class="node">
<title>[root] aws_security_group.ssh&#45;allowed</title>
<polygon fill="none" stroke="black" points="1039.24,-396 839.98,-396 839.98,-360 1039.24,-360 1039.24,-396"/>
<text text-anchor="middle" x="939.61" y="-373.8" font-family="Times,serif" font-size="14.00">aws_security_group.ssh&#45;allowed</text>
</g>
<!-- [root] aws_instance.ubuntu&#45;ec2&#45;&gt;[root] aws_security_group.ssh&#45;allowed -->
<g id="edge2" class="edge">
<title>[root] aws_instance.ubuntu&#45;ec2&#45;&gt;[root] aws_security_group.ssh&#45;allowed</title>
<path fill="none" stroke="black" d="M765.58,-431.97C798.13,-422.06 839.35,-409.51 873.5,-399.12"/>
<polygon fill="black" stroke="black" points="874.84,-402.37 883.39,-396.11 872.8,-395.67 874.84,-402.37"/>
</g>
<!-- [root] aws_subnet.public -->
<g id="node10" class="node">
<title>[root] aws_subnet.public</title>
<polygon fill="none" stroke="black" points="1537.43,-396 1417.79,-396 1417.79,-360 1537.43,-360 1537.43,-396"/>
<text text-anchor="middle" x="1477.61" y="-373.8" font-family="Times,serif" font-size="14.00">aws_subnet.public</text>
</g>
<!-- [root] aws_instance.ubuntu&#45;ec2&#45;&gt;[root] aws_subnet.public -->
<g id="edge3" class="edge">
<title>[root] aws_instance.ubuntu&#45;ec2&#45;&gt;[root] aws_subnet.public</title>
<path fill="none" stroke="black" d="M788.3,-433.8C792.8,-433.14 797.26,-432.53 801.61,-432 1066.61,-399.78 1139.63,-435.6 1407.51,-395.99"/>
<polygon fill="black" stroke="black" points="1408.16,-399.43 1417.53,-394.49 1407.12,-392.51 1408.16,-399.43"/>
</g>
<!-- [root] var.aws&#45;ami -->
<g id="node21" class="node">
<title>[root] var.aws&#45;ami</title>
<polygon fill="none" stroke="black" points="263.65,-396 185.57,-396 185.57,-360 269.65,-360 269.65,-390 263.65,-396"/>
<polyline fill="none" stroke="black" points="263.65,-396 263.65,-390 "/>
<polyline fill="none" stroke="black" points="269.65,-390 263.65,-390 "/>
<text text-anchor="middle" x="227.61" y="-373.8" font-family="Times,serif" font-size="14.00">var.aws&#45;ami</text>
</g>
<!-- [root] aws_instance.ubuntu&#45;ec2&#45;&gt;[root] var.aws&#45;ami -->
<g id="edge5" class="edge">
<title>[root] aws_instance.ubuntu&#45;ec2&#45;&gt;[root] var.aws&#45;ami</title>
<path fill="none" stroke="black" d="M630.94,-444.06C546.13,-437.66 407.22,-424.11 279.67,-395.99"/>
<polygon fill="black" stroke="black" points="280.25,-392.53 269.73,-393.76 278.72,-399.36 280.25,-392.53"/>
</g>
<!-- [root] var.ec2_user -->
<g id="node27" class="node">
<title>[root] var.ec2_user</title>
<polygon fill="none" stroke="black" points="367.97,-396 287.25,-396 287.25,-360 373.97,-360 373.97,-390 367.97,-396"/>
<polyline fill="none" stroke="black" points="367.97,-396 367.97,-390 "/>
<polyline fill="none" stroke="black" points="373.97,-390 367.97,-390 "/>
<text text-anchor="middle" x="330.61" y="-373.8" font-family="Times,serif" font-size="14.00">var.ec2_user</text>
</g>
<!-- [root] aws_instance.ubuntu&#45;ec2&#45;&gt;[root] var.ec2_user -->
<g id="edge6" class="edge">
<title>[root] aws_instance.ubuntu&#45;ec2&#45;&gt;[root] var.ec2_user</title>
<path fill="none" stroke="black" d="M630.96,-439.74C566.64,-431.37 473.28,-417.39 383.66,-396.06"/>
<polygon fill="black" stroke="black" points="384.42,-392.65 373.88,-393.7 382.78,-399.45 384.42,-392.65"/>
</g>
<!-- [root] var.ssh_private_key_filepath -->
<g id="node33" class="node">
<title>[root] var.ssh_private_key_filepath</title>
<polygon fill="none" stroke="black" points="561.69,-396 391.53,-396 391.53,-360 567.69,-360 567.69,-390 561.69,-396"/>
<polyline fill="none" stroke="black" points="561.69,-396 561.69,-390 "/>
<polyline fill="none" stroke="black" points="567.69,-390 561.69,-390 "/>
<text text-anchor="middle" x="479.61" y="-373.8" font-family="Times,serif" font-size="14.00">var.ssh_private_key_filepath</text>
</g>
<!-- [root] aws_instance.ubuntu&#45;ec2&#45;&gt;[root] var.ssh_private_key_filepath -->
<g id="edge7" class="edge">
<title>[root] aws_instance.ubuntu&#45;ec2&#45;&gt;[root] var.ssh_private_key_filepath</title>
<path fill="none" stroke="black" d="M653.64,-431.97C621.08,-422.06 579.87,-409.51 545.72,-399.12"/>
<polygon fill="black" stroke="black" points="546.42,-395.67 535.83,-396.11 544.38,-402.37 546.42,-395.67"/>
</g>
<!-- [root] provisioner.remote&#45;exec -->
<g id="node35" class="node">
<title>[root] provisioner.remote&#45;exec</title>
<ellipse fill="none" stroke="black" cx="703.61" cy="-378" rx="118.31" ry="18"/>
<text text-anchor="middle" x="703.61" y="-373.8" font-family="Times,serif" font-size="14.00">[root] provisioner.remote&#45;exec</text>
</g>
<!-- [root] aws_instance.ubuntu&#45;ec2&#45;&gt;[root] provisioner.remote&#45;exec -->
<g id="edge4" class="edge">
<title>[root] aws_instance.ubuntu&#45;ec2&#45;&gt;[root] provisioner.remote&#45;exec</title>
<path fill="none" stroke="black" d="M708.13,-431.7C707.46,-423.98 706.67,-414.71 705.93,-406.11"/>
<polygon fill="black" stroke="black" points="709.42,-405.77 705.07,-396.1 702.44,-406.37 709.42,-405.77"/>
</g>
<!-- [root] aws_internet_gateway.public -->
<g id="node2" class="node">
<title>[root] aws_internet_gateway.public</title>
<polygon fill="none" stroke="black" points="1235.87,-396 1057.35,-396 1057.35,-360 1235.87,-360 1235.87,-396"/>
<text text-anchor="middle" x="1146.61" y="-373.8" font-family="Times,serif" font-size="14.00">aws_internet_gateway.public</text>
</g>
<!-- [root] aws_vpc.default -->
<g id="node11" class="node">
<title>[root] aws_vpc.default</title>
<polygon fill="none" stroke="black" points="1380.46,-324 1272.75,-324 1272.75,-288 1380.46,-288 1380.46,-324"/>
<text text-anchor="middle" x="1326.61" y="-301.8" font-family="Times,serif" font-size="14.00">aws_vpc.default</text>
</g>
<!-- [root] aws_internet_gateway.public&#45;&gt;[root] aws_vpc.default -->
<g id="edge8" class="edge">
<title>[root] aws_internet_gateway.public&#45;&gt;[root] aws_vpc.default</title>
<path fill="none" stroke="black" d="M1190.64,-359.88C1215.58,-350.18 1246.95,-337.98 1273.27,-327.74"/>
<polygon fill="black" stroke="black" points="1274.67,-330.95 1282.72,-324.07 1272.13,-324.43 1274.67,-330.95"/>
</g>
<!-- [root] provider.aws -->
<g id="node17" class="node">
<title>[root] provider.aws</title>
<polygon fill="none" stroke="black" points="1238.61,-252 1160,-234 1238.61,-216 1317.22,-234 1238.61,-252"/>
<text text-anchor="middle" x="1238.61" y="-229.8" font-family="Times,serif" font-size="14.00">provider.aws</text>
</g>
<!-- [root] aws_key_pair.ec2&#45;key&#45;pair&#45;&gt;[root] provider.aws -->
<g id="edge9" class="edge">
<title>[root] aws_key_pair.ec2&#45;key&#45;pair&#45;&gt;[root] provider.aws</title>
<path fill="none" stroke="black" d="M167.22,-361.46C170.39,-360.95 173.52,-360.46 176.61,-360 554.32,-303.31 1010.83,-257.01 1175.54,-241.01"/>
<polygon fill="black" stroke="black" points="1176.35,-244.45 1185.96,-240 1175.67,-237.48 1176.35,-244.45"/>
</g>
<!-- [root] var.ssh_public_key -->
<g id="node34" class="node">
<title>[root] var.ssh_public_key</title>
<polygon fill="none" stroke="black" points="139.32,-324 21.89,-324 21.89,-288 145.32,-288 145.32,-318 139.32,-324"/>
<polyline fill="none" stroke="black" points="139.32,-324 139.32,-318 "/>
<polyline fill="none" stroke="black" points="145.32,-318 139.32,-318 "/>
<text text-anchor="middle" x="83.61" y="-301.8" font-family="Times,serif" font-size="14.00">var.ssh_public_key</text>
</g>
<!-- [root] aws_key_pair.ec2&#45;key&#45;pair&#45;&gt;[root] var.ssh_public_key -->
<g id="edge10" class="edge">
<title>[root] aws_key_pair.ec2&#45;key&#45;pair&#45;&gt;[root] var.ssh_public_key</title>
<path fill="none" stroke="black" d="M83.61,-359.7C83.61,-351.98 83.61,-342.71 83.61,-334.11"/>
<polygon fill="black" stroke="black" points="87.11,-334.1 83.61,-324.1 80.11,-334.1 87.11,-334.1"/>
</g>
<!-- [root] aws_main_route_table_association.public -->
<g id="node4" class="node">
<title>[root] aws_main_route_table_association.public</title>
<polygon fill="none" stroke="black" points="1253.05,-468 1002.17,-468 1002.17,-432 1253.05,-432 1253.05,-468"/>
<text text-anchor="middle" x="1127.61" y="-445.8" font-family="Times,serif" font-size="14.00">aws_main_route_table_association.public</text>
</g>
<!-- [root] aws_route_table.public -->
<g id="node6" class="node">
<title>[root] aws_route_table.public</title>
<polygon fill="none" stroke="black" points="1399.85,-396 1253.37,-396 1253.37,-360 1399.85,-360 1399.85,-396"/>
<text text-anchor="middle" x="1326.61" y="-373.8" font-family="Times,serif" font-size="14.00">aws_route_table.public</text>
</g>
<!-- [root] aws_main_route_table_association.public&#45;&gt;[root] aws_route_table.public -->
<g id="edge11" class="edge">
<title>[root] aws_main_route_table_association.public&#45;&gt;[root] aws_route_table.public</title>
<path fill="none" stroke="black" d="M1176.04,-431.97C1203.84,-422.19 1238.95,-409.84 1268.26,-399.52"/>
<polygon fill="black" stroke="black" points="1269.69,-402.73 1277.97,-396.11 1267.37,-396.13 1269.69,-402.73"/>
</g>
<!-- [root] aws_route.internet_gateway -->
<g id="node5" class="node">
<title>[root] aws_route.internet_gateway</title>
<polygon fill="none" stroke="black" points="984.55,-468 810.67,-468 810.67,-432 984.55,-432 984.55,-468"/>
<text text-anchor="middle" x="897.61" y="-445.8" font-family="Times,serif" font-size="14.00">aws_route.internet_gateway</text>
</g>
<!-- [root] aws_route.internet_gateway&#45;&gt;[root] aws_internet_gateway.public -->
<g id="edge12" class="edge">
<title>[root] aws_route.internet_gateway&#45;&gt;[root] aws_internet_gateway.public</title>
<path fill="none" stroke="black" d="M958.2,-431.97C993.75,-421.97 1038.83,-409.3 1075.99,-398.85"/>
<polygon fill="black" stroke="black" points="1077.06,-402.19 1085.74,-396.11 1075.17,-395.45 1077.06,-402.19"/>
</g>
<!-- [root] aws_route.internet_gateway&#45;&gt;[root] aws_route_table.public -->
<g id="edge13" class="edge">
<title>[root] aws_route.internet_gateway&#45;&gt;[root] aws_route_table.public</title>
<path fill="none" stroke="black" d="M984.45,-433.49C987.54,-432.98 990.6,-432.48 993.61,-432 1101.74,-414.68 1131.91,-415.39 1243.38,-396.16"/>
<polygon fill="black" stroke="black" points="1244.08,-399.59 1253.33,-394.43 1242.88,-392.69 1244.08,-399.59"/>
</g>
<!-- [root] aws_route_table.public&#45;&gt;[root] aws_vpc.default -->
<g id="edge14" class="edge">
<title>[root] aws_route_table.public&#45;&gt;[root] aws_vpc.default</title>
<path fill="none" stroke="black" d="M1326.61,-359.7C1326.61,-351.98 1326.61,-342.71 1326.61,-334.11"/>
<polygon fill="black" stroke="black" points="1330.11,-334.1 1326.61,-324.1 1323.11,-334.1 1330.11,-334.1"/>
</g>
<!-- [root] aws_route_table_association.public -->
<g id="node7" class="node">
<title>[root] aws_route_table_association.public</title>
<polygon fill="none" stroke="black" points="1486.55,-468 1270.66,-468 1270.66,-432 1486.55,-432 1486.55,-468"/>
<text text-anchor="middle" x="1378.61" y="-445.8" font-family="Times,serif" font-size="14.00">aws_route_table_association.public</text>
</g>
<!-- [root] aws_route_table_association.public&#45;&gt;[root] aws_route_table.public -->
<g id="edge15" class="edge">
<title>[root] aws_route_table_association.public&#45;&gt;[root] aws_route_table.public</title>
<path fill="none" stroke="black" d="M1365.75,-431.7C1359.58,-423.39 1352.07,-413.28 1345.28,-404.14"/>
<polygon fill="black" stroke="black" points="1348.09,-402.04 1339.31,-396.1 1342.47,-406.22 1348.09,-402.04"/>
</g>
<!-- [root] aws_route_table_association.public&#45;&gt;[root] aws_subnet.public -->
<g id="edge16" class="edge">
<title>[root] aws_route_table_association.public&#45;&gt;[root] aws_subnet.public</title>
<path fill="none" stroke="black" d="M1402.83,-431.88C1415.53,-422.89 1431.27,-411.76 1445.03,-402.03"/>
<polygon fill="black" stroke="black" points="1447.15,-404.82 1453.3,-396.19 1443.11,-399.11 1447.15,-404.82"/>
</g>
<!-- [root] aws_security_group.pg&#45;allowed -->
<g id="node8" class="node">
<title>[root] aws_security_group.pg&#45;allowed</title>
<polygon fill="none" stroke="black" points="1751.34,-396 1555.88,-396 1555.88,-360 1751.34,-360 1751.34,-396"/>
<text text-anchor="middle" x="1653.61" y="-373.8" font-family="Times,serif" font-size="14.00">aws_security_group.pg&#45;allowed</text>
</g>
<!-- [root] aws_security_group.pg&#45;allowed&#45;&gt;[root] aws_vpc.default -->
<g id="edge17" class="edge">
<title>[root] aws_security_group.pg&#45;allowed&#45;&gt;[root] aws_vpc.default</title>
<path fill="none" stroke="black" d="M1574.03,-359.97C1517.56,-347.88 1442.75,-331.86 1390.23,-320.62"/>
<polygon fill="black" stroke="black" points="1390.88,-317.18 1380.36,-318.51 1389.41,-324.02 1390.88,-317.18"/>
</g>
<!-- [root] aws_security_group.ssh&#45;allowed&#45;&gt;[root] aws_vpc.default -->
<g id="edge18" class="edge">
<title>[root] aws_security_group.ssh&#45;allowed&#45;&gt;[root] aws_vpc.default</title>
<path fill="none" stroke="black" d="M1033.78,-359.97C1104.78,-347.12 1200.26,-329.85 1262.6,-318.58"/>
<polygon fill="black" stroke="black" points="1263.47,-321.98 1272.69,-316.75 1262.23,-315.09 1263.47,-321.98"/>
</g>
<!-- [root] aws_subnet.public&#45;&gt;[root] aws_vpc.default -->
<g id="edge19" class="edge">
<title>[root] aws_subnet.public&#45;&gt;[root] aws_vpc.default</title>
<path fill="none" stroke="black" d="M1440.67,-359.88C1420.12,-350.35 1394.36,-338.41 1372.52,-328.28"/>
<polygon fill="black" stroke="black" points="1373.97,-325.1 1363.43,-324.07 1371.03,-331.45 1373.97,-325.1"/>
</g>
<!-- [root] aws_vpc.default&#45;&gt;[root] provider.aws -->
<g id="edge20" class="edge">
<title>[root] aws_vpc.default&#45;&gt;[root] provider.aws</title>
<path fill="none" stroke="black" d="M1304.86,-287.7C1292.33,-277.73 1276.54,-265.17 1263.52,-254.81"/>
<polygon fill="black" stroke="black" points="1265.43,-251.86 1255.42,-248.38 1261.07,-257.34 1265.43,-251.86"/>
</g>
<!-- [root] var.name -->
<g id="node32" class="node">
<title>[root] var.name</title>
<polygon fill="none" stroke="black" points="1396.04,-252 1335.18,-252 1335.18,-216 1402.04,-216 1402.04,-246 1396.04,-252"/>
<polyline fill="none" stroke="black" points="1396.04,-252 1396.04,-246 "/>
<polyline fill="none" stroke="black" points="1402.04,-246 1396.04,-246 "/>
<text text-anchor="middle" x="1368.61" y="-229.8" font-family="Times,serif" font-size="14.00">var.name</text>
</g>
<!-- [root] aws_vpc.default&#45;&gt;[root] var.name -->
<g id="edge21" class="edge">
<title>[root] aws_vpc.default&#45;&gt;[root] var.name</title>
<path fill="none" stroke="black" d="M1336.99,-287.7C1341.87,-279.56 1347.8,-269.69 1353.19,-260.7"/>
<polygon fill="black" stroke="black" points="1356.2,-262.48 1358.35,-252.1 1350.2,-258.88 1356.2,-262.48"/>
</g>
<!-- [root] aws_vpc_endpoint.heroku&#45;pg&#45;privatelink -->
<g id="node12" class="node">
<title>[root] aws_vpc_endpoint.heroku&#45;pg&#45;privatelink</title>
<polygon fill="none" stroke="black" points="1751.44,-468 1503.78,-468 1503.78,-432 1751.44,-432 1751.44,-468"/>
<text text-anchor="middle" x="1627.61" y="-445.8" font-family="Times,serif" font-size="14.00">aws_vpc_endpoint.heroku&#45;pg&#45;privatelink</text>
</g>
<!-- [root] aws_vpc_endpoint.heroku&#45;pg&#45;privatelink&#45;&gt;[root] aws_security_group.pg&#45;allowed -->
<g id="edge22" class="edge">
<title>[root] aws_vpc_endpoint.heroku&#45;pg&#45;privatelink&#45;&gt;[root] aws_security_group.pg&#45;allowed</title>
<path fill="none" stroke="black" d="M1634.04,-431.7C1636.96,-423.81 1640.5,-414.3 1643.75,-405.55"/>
<polygon fill="black" stroke="black" points="1647.05,-406.7 1647.26,-396.1 1640.49,-404.26 1647.05,-406.7"/>
</g>
<!-- [root] aws_vpc_endpoint.heroku&#45;pg&#45;privatelink&#45;&gt;[root] aws_subnet.public -->
<g id="edge23" class="edge">
<title>[root] aws_vpc_endpoint.heroku&#45;pg&#45;privatelink&#45;&gt;[root] aws_subnet.public</title>
<path fill="none" stroke="black" d="M1590.91,-431.88C1570.59,-422.39 1545.14,-410.51 1523.51,-400.42"/>
<polygon fill="black" stroke="black" points="1524.73,-397.13 1514.18,-396.07 1521.77,-403.47 1524.73,-397.13"/>
</g>
<!-- [root] null_resource.private_postgres_endpoint_service -->
<g id="node16" class="node">
<title>[root] null_resource.private_postgres_endpoint_service</title>
<polygon fill="none" stroke="black" points="2097.97,-396 1807.25,-396 1807.25,-360 2097.97,-360 2097.97,-396"/>
<text text-anchor="middle" x="1952.61" y="-373.8" font-family="Times,serif" font-size="14.00">null_resource.private_postgres_endpoint_service</text>
</g>
<!-- [root] aws_vpc_endpoint.heroku&#45;pg&#45;privatelink&#45;&gt;[root] null_resource.private_postgres_endpoint_service -->
<g id="edge24" class="edge">
<title>[root] aws_vpc_endpoint.heroku&#45;pg&#45;privatelink&#45;&gt;[root] null_resource.private_postgres_endpoint_service</title>
<path fill="none" stroke="black" d="M1706.7,-431.97C1754.07,-421.76 1814.42,-408.76 1863.48,-398.2"/>
<polygon fill="black" stroke="black" points="1864.41,-401.58 1873.45,-396.05 1862.94,-394.73 1864.41,-401.58"/>
</g>
<!-- [root] heroku_addon.private_postgres_example -->
<g id="node13" class="node">
<title>[root] heroku_addon.private_postgres_example</title>
<polygon fill="none" stroke="black" points="1775.65,-324 1529.57,-324 1529.57,-288 1775.65,-288 1775.65,-324"/>
<text text-anchor="middle" x="1652.61" y="-301.8" font-family="Times,serif" font-size="14.00">heroku_addon.private_postgres_example</text>
</g>
<!-- [root] heroku_app.example -->
<g id="node14" class="node">
<title>[root] heroku_app.example</title>
<polygon fill="none" stroke="black" points="1676.12,-252 1543.1,-252 1543.1,-216 1676.12,-216 1676.12,-252"/>
<text text-anchor="middle" x="1609.61" y="-229.8" font-family="Times,serif" font-size="14.00">heroku_app.example</text>
</g>
<!-- [root] heroku_addon.private_postgres_example&#45;&gt;[root] heroku_app.example -->
<g id="edge25" class="edge">
<title>[root] heroku_addon.private_postgres_example&#45;&gt;[root] heroku_app.example</title>
<path fill="none" stroke="black" d="M1641.98,-287.7C1636.98,-279.56 1630.92,-269.69 1625.4,-260.7"/>
<polygon fill="black" stroke="black" points="1628.33,-258.79 1620.12,-252.1 1622.37,-262.46 1628.33,-258.79"/>
</g>
<!-- [root] heroku_space.example -->
<g id="node15" class="node">
<title>[root] heroku_space.example</title>
<polygon fill="none" stroke="black" points="1681.5,-180 1537.72,-180 1537.72,-144 1681.5,-144 1681.5,-180"/>
<text text-anchor="middle" x="1609.61" y="-157.8" font-family="Times,serif" font-size="14.00">heroku_space.example</text>
</g>
<!-- [root] heroku_app.example&#45;&gt;[root] heroku_space.example -->
<g id="edge26" class="edge">
<title>[root] heroku_app.example&#45;&gt;[root] heroku_space.example</title>
<path fill="none" stroke="black" d="M1609.61,-215.7C1609.61,-207.98 1609.61,-198.71 1609.61,-190.11"/>
<polygon fill="black" stroke="black" points="1613.11,-190.1 1609.61,-180.1 1606.11,-190.1 1613.11,-190.1"/>
</g>
<!-- [root] var.app_name -->
<g id="node20" class="node">
<title>[root] var.app_name</title>
<polygon fill="none" stroke="black" points="1513.75,-180 1425.47,-180 1425.47,-144 1519.75,-144 1519.75,-174 1513.75,-180"/>
<polyline fill="none" stroke="black" points="1513.75,-180 1513.75,-174 "/>
<polyline fill="none" stroke="black" points="1519.75,-174 1513.75,-174 "/>
<text text-anchor="middle" x="1472.61" y="-157.8" font-family="Times,serif" font-size="14.00">var.app_name</text>
</g>
<!-- [root] heroku_app.example&#45;&gt;[root] var.app_name -->
<g id="edge27" class="edge">
<title>[root] heroku_app.example&#45;&gt;[root] var.app_name</title>
<path fill="none" stroke="black" d="M1576.09,-215.88C1557.77,-206.51 1534.87,-194.81 1515.28,-184.8"/>
<polygon fill="black" stroke="black" points="1516.75,-181.62 1506.25,-180.19 1513.56,-187.86 1516.75,-181.62"/>
</g>
<!-- [root] provider.heroku -->
<g id="node18" class="node">
<title>[root] provider.heroku</title>
<polygon fill="none" stroke="black" points="1602.61,-108 1508.94,-90 1602.61,-72 1696.28,-90 1602.61,-108"/>
<text text-anchor="middle" x="1602.61" y="-85.8" font-family="Times,serif" font-size="14.00">provider.heroku</text>
</g>
<!-- [root] heroku_space.example&#45;&gt;[root] provider.heroku -->
<g id="edge28" class="edge">
<title>[root] heroku_space.example&#45;&gt;[root] provider.heroku</title>
<path fill="none" stroke="black" d="M1607.88,-143.7C1607.11,-135.98 1606.18,-126.71 1605.32,-118.11"/>
<polygon fill="black" stroke="black" points="1608.8,-117.71 1604.32,-108.1 1601.83,-118.4 1608.8,-117.71"/>
</g>
<!-- [root] var.aws_region -->
<g id="node24" class="node">
<title>[root] var.aws_region</title>
<polygon fill="none" stroke="black" points="1301.26,-108 1205.96,-108 1205.96,-72 1307.26,-72 1307.26,-102 1301.26,-108"/>
<polyline fill="none" stroke="black" points="1301.26,-108 1301.26,-102 "/>
<polyline fill="none" stroke="black" points="1307.26,-102 1301.26,-102 "/>
<text text-anchor="middle" x="1256.61" y="-85.8" font-family="Times,serif" font-size="14.00">var.aws_region</text>
</g>
<!-- [root] heroku_space.example&#45;&gt;[root] var.aws_region -->
<g id="edge29" class="edge">
<title>[root] heroku_space.example&#45;&gt;[root] var.aws_region</title>
<path fill="none" stroke="black" d="M1537.65,-145.76C1534.59,-145.16 1531.57,-144.57 1528.61,-144 1436.9,-126.41 1412.86,-127.83 1321.61,-108 1320.15,-107.68 1318.67,-107.35 1317.18,-107.02"/>
<polygon fill="black" stroke="black" points="1317.79,-103.56 1307.25,-104.68 1316.19,-110.38 1317.79,-103.56"/>
</g>
<!-- [root] var.aws_to_heroku_private_region -->
<g id="node26" class="node">
<title>[root] var.aws_to_heroku_private_region</title>
<polygon fill="none" stroke="black" points="1918.89,-108 1714.33,-108 1714.33,-72 1924.89,-72 1924.89,-102 1918.89,-108"/>
<polyline fill="none" stroke="black" points="1918.89,-108 1918.89,-102 "/>
<polyline fill="none" stroke="black" points="1924.89,-102 1918.89,-102 "/>
<text text-anchor="middle" x="1819.61" y="-85.8" font-family="Times,serif" font-size="14.00">var.aws_to_heroku_private_region</text>
</g>
<!-- [root] heroku_space.example&#45;&gt;[root] var.aws_to_heroku_private_region -->
<g id="edge30" class="edge">
<title>[root] heroku_space.example&#45;&gt;[root] var.aws_to_heroku_private_region</title>
<path fill="none" stroke="black" d="M1660.71,-143.97C1690.18,-134.14 1727.42,-121.73 1758.44,-111.39"/>
<polygon fill="black" stroke="black" points="1759.9,-114.59 1768.28,-108.11 1757.68,-107.95 1759.9,-114.59"/>
</g>
<!-- [root] var.heroku_enterprise_team -->
<g id="node30" class="node">
<title>[root] var.heroku_enterprise_team</title>
<polygon fill="none" stroke="black" points="2108.5,-108 1942.72,-108 1942.72,-72 2114.5,-72 2114.5,-102 2108.5,-108"/>
<polyline fill="none" stroke="black" points="2108.5,-108 2108.5,-102 "/>
<polyline fill="none" stroke="black" points="2114.5,-102 2108.5,-102 "/>
<text text-anchor="middle" x="2028.61" y="-85.8" font-family="Times,serif" font-size="14.00">var.heroku_enterprise_team</text>
</g>
<!-- [root] heroku_space.example&#45;&gt;[root] var.heroku_enterprise_team -->
<g id="edge31" class="edge">
<title>[root] heroku_space.example&#45;&gt;[root] var.heroku_enterprise_team</title>
<path fill="none" stroke="black" d="M1681.72,-149.52C1745.11,-139.36 1840.13,-123.95 1932.57,-108.17"/>
<polygon fill="black" stroke="black" points="1933.39,-111.58 1942.66,-106.44 1932.21,-104.68 1933.39,-111.58"/>
</g>
<!-- [root] var.heroku_private_space -->
<g id="node31" class="node">
<title>[root] var.heroku_private_space</title>
<polygon fill="none" stroke="black" points="1484.55,-108 1330.66,-108 1330.66,-72 1490.55,-72 1490.55,-102 1484.55,-108"/>
<polyline fill="none" stroke="black" points="1484.55,-108 1484.55,-102 "/>
<polyline fill="none" stroke="black" points="1490.55,-102 1484.55,-102 "/>
<text text-anchor="middle" x="1410.61" y="-85.8" font-family="Times,serif" font-size="14.00">var.heroku_private_space</text>
</g>
<!-- [root] heroku_space.example&#45;&gt;[root] var.heroku_private_space -->
<g id="edge32" class="edge">
<title>[root] heroku_space.example&#45;&gt;[root] var.heroku_private_space</title>
<path fill="none" stroke="black" d="M1561.18,-143.97C1533.38,-134.19 1498.27,-121.84 1468.95,-111.52"/>
<polygon fill="black" stroke="black" points="1469.85,-108.13 1459.25,-108.11 1467.52,-114.73 1469.85,-108.13"/>
</g>
<!-- [root] null_resource.private_postgres_endpoint_service&#45;&gt;[root] heroku_addon.private_postgres_example -->
<g id="edge38" class="edge">
<title>[root] null_resource.private_postgres_endpoint_service&#45;&gt;[root] heroku_addon.private_postgres_example</title>
<path fill="none" stroke="black" d="M1879.6,-359.97C1836.06,-349.8 1780.63,-336.87 1735.45,-326.33"/>
<polygon fill="black" stroke="black" points="1736.21,-322.91 1725.68,-324.05 1734.62,-329.73 1736.21,-322.91"/>
</g>
<!-- [root] provider.null -->
<g id="node19" class="node">
<title>[root] provider.null</title>
<polygon fill="none" stroke="black" points="1872.61,-324 1793.99,-306 1872.61,-288 1951.23,-306 1872.61,-324"/>
<text text-anchor="middle" x="1872.61" y="-301.8" font-family="Times,serif" font-size="14.00">provider.null</text>
</g>
<!-- [root] null_resource.private_postgres_endpoint_service&#45;&gt;[root] provider.null -->
<g id="edge39" class="edge">
<title>[root] null_resource.private_postgres_endpoint_service&#45;&gt;[root] provider.null</title>
<path fill="none" stroke="black" d="M1932.83,-359.7C1921.63,-349.89 1907.55,-337.58 1895.83,-327.32"/>
<polygon fill="black" stroke="black" points="1897.98,-324.55 1888.15,-320.6 1893.37,-329.82 1897.98,-324.55"/>
</g>
<!-- [root] var.aws_account_id -->
<g id="node23" class="node">
<title>[root] var.aws_account_id</title>
<polygon fill="none" stroke="black" points="2089.91,-324 1969.31,-324 1969.31,-288 2095.91,-288 2095.91,-318 2089.91,-324"/>
<polyline fill="none" stroke="black" points="2089.91,-324 2089.91,-318 "/>
<polyline fill="none" stroke="black" points="2095.91,-318 2089.91,-318 "/>
<text text-anchor="middle" x="2032.61" y="-301.8" font-family="Times,serif" font-size="14.00">var.aws_account_id</text>
</g>
<!-- [root] null_resource.private_postgres_endpoint_service&#45;&gt;[root] var.aws_account_id -->
<g id="edge41" class="edge">
<title>[root] null_resource.private_postgres_endpoint_service&#45;&gt;[root] var.aws_account_id</title>
<path fill="none" stroke="black" d="M1972.38,-359.7C1982.36,-350.97 1994.62,-340.24 2005.47,-330.75"/>
<polygon fill="black" stroke="black" points="2007.84,-333.32 2013.06,-324.1 2003.23,-328.06 2007.84,-333.32"/>
</g>
<!-- [root] provisioner.local&#45;exec -->
<g id="node37" class="node">
<title>[root] provisioner.local&#45;exec</title>
<ellipse fill="none" stroke="black" cx="2224.61" cy="-306" rx="110.58" ry="18"/>
<text text-anchor="middle" x="2224.61" y="-301.8" font-family="Times,serif" font-size="14.00">[root] provisioner.local&#45;exec</text>
</g>
<!-- [root] null_resource.private_postgres_endpoint_service&#45;&gt;[root] provisioner.local&#45;exec -->
<g id="edge40" class="edge">
<title>[root] null_resource.private_postgres_endpoint_service&#45;&gt;[root] provisioner.local&#45;exec</title>
<path fill="none" stroke="black" d="M2018.8,-359.97C2061.16,-349.06 2115.93,-334.97 2158.31,-324.06"/>
<polygon fill="black" stroke="black" points="2159.44,-327.39 2168.25,-321.5 2157.7,-320.61 2159.44,-327.39"/>
</g>
<!-- [root] var.aws_access_key -->
<g id="node22" class="node">
<title>[root] var.aws_access_key</title>
<polygon fill="none" stroke="black" points="1209.96,-180 1087.26,-180 1087.26,-144 1215.96,-144 1215.96,-174 1209.96,-180"/>
<polyline fill="none" stroke="black" points="1209.96,-180 1209.96,-174 "/>
<polyline fill="none" stroke="black" points="1215.96,-174 1209.96,-174 "/>
<text text-anchor="middle" x="1151.61" y="-157.8" font-family="Times,serif" font-size="14.00">var.aws_access_key</text>
</g>
<!-- [root] provider.aws&#45;&gt;[root] var.aws_access_key -->
<g id="edge47" class="edge">
<title>[root] provider.aws&#45;&gt;[root] var.aws_access_key</title>
<path fill="none" stroke="black" d="M1221.83,-219.5C1210.3,-210.23 1194.68,-197.66 1181.1,-186.73"/>
<polygon fill="black" stroke="black" points="1182.95,-183.72 1172.96,-180.18 1178.56,-189.18 1182.95,-183.72"/>
</g>
<!-- [root] provider.aws&#45;&gt;[root] var.aws_region -->
<g id="edge48" class="edge">
<title>[root] provider.aws&#45;&gt;[root] var.aws_region</title>
<path fill="none" stroke="black" d="M1240.71,-216.43C1243.75,-192.43 1249.42,-147.68 1253.11,-118.64"/>
<polygon fill="black" stroke="black" points="1256.62,-118.71 1254.41,-108.35 1249.68,-117.83 1256.62,-118.71"/>
</g>
<!-- [root] var.aws_secret_key -->
<g id="node25" class="node">
<title>[root] var.aws_secret_key</title>
<polygon fill="none" stroke="black" points="1391.35,-180 1271.87,-180 1271.87,-144 1397.35,-144 1397.35,-174 1391.35,-180"/>
<polyline fill="none" stroke="black" points="1391.35,-180 1391.35,-174 "/>
<polyline fill="none" stroke="black" points="1397.35,-174 1391.35,-174 "/>
<text text-anchor="middle" x="1334.61" y="-157.8" font-family="Times,serif" font-size="14.00">var.aws_secret_key</text>
</g>
<!-- [root] provider.aws&#45;&gt;[root] var.aws_secret_key -->
<g id="edge49" class="edge">
<title>[root] provider.aws&#45;&gt;[root] var.aws_secret_key</title>
<path fill="none" stroke="black" d="M1256.67,-219.83C1269.68,-210.34 1287.59,-197.29 1302.95,-186.08"/>
<polygon fill="black" stroke="black" points="1305.16,-188.8 1311.18,-180.08 1301.04,-183.15 1305.16,-188.8"/>
</g>
<!-- [root] var.heroku_api_key -->
<g id="node28" class="node">
<title>[root] var.heroku_api_key</title>
<polygon fill="none" stroke="black" points="1590.91,-36 1470.31,-36 1470.31,0 1596.91,0 1596.91,-30 1590.91,-36"/>
<polyline fill="none" stroke="black" points="1590.91,-36 1590.91,-30 "/>
<polyline fill="none" stroke="black" points="1596.91,-30 1590.91,-30 "/>
<text text-anchor="middle" x="1533.61" y="-13.8" font-family="Times,serif" font-size="14.00">var.heroku_api_key</text>
</g>
<!-- [root] provider.heroku&#45;&gt;[root] var.heroku_api_key -->
<g id="edge51" class="edge">
<title>[root] provider.heroku&#45;&gt;[root] var.heroku_api_key</title>
<path fill="none" stroke="black" d="M1588.31,-74.5C1579.48,-65.54 1567.92,-53.81 1557.71,-43.45"/>
<polygon fill="black" stroke="black" points="1560.08,-40.87 1550.57,-36.2 1555.09,-45.78 1560.08,-40.87"/>
</g>
<!-- [root] var.heroku_email -->
<g id="node29" class="node">
<title>[root] var.heroku_email</title>
<polygon fill="none" stroke="black" points="1722.19,-36 1615.03,-36 1615.03,0 1728.19,0 1728.19,-30 1722.19,-36"/>
<polyline fill="none" stroke="black" points="1722.19,-36 1722.19,-30 "/>
<polyline fill="none" stroke="black" points="1728.19,-30 1722.19,-30 "/>
<text text-anchor="middle" x="1671.61" y="-13.8" font-family="Times,serif" font-size="14.00">var.heroku_email</text>
</g>
<!-- [root] provider.heroku&#45;&gt;[root] var.heroku_email -->
<g id="edge52" class="edge">
<title>[root] provider.heroku&#45;&gt;[root] var.heroku_email</title>
<path fill="none" stroke="black" d="M1616.91,-74.5C1625.74,-65.54 1637.29,-53.81 1647.51,-43.45"/>
<polygon fill="black" stroke="black" points="1650.12,-45.78 1654.65,-36.2 1645.14,-40.87 1650.12,-45.78"/>
</g>
<!-- [root] meta.count&#45;boundary (EachMode fixup) -->
<g id="node36" class="node">
<title>[root] meta.count&#45;boundary (EachMode fixup)</title>
<ellipse fill="none" stroke="black" cx="1067.61" cy="-522" rx="174.79" ry="18"/>
<text text-anchor="middle" x="1067.61" y="-517.8" font-family="Times,serif" font-size="14.00">[root] meta.count&#45;boundary (EachMode fixup)</text>
</g>
<!-- [root] meta.count&#45;boundary (EachMode fixup)&#45;&gt;[root] aws_instance.ubuntu&#45;ec2 -->
<g id="edge33" class="edge">
<title>[root] meta.count&#45;boundary (EachMode fixup)&#45;&gt;[root] aws_instance.ubuntu&#45;ec2</title>
<path fill="none" stroke="black" d="M989.93,-505.81C933.55,-494.79 857.18,-479.86 798.39,-468.36"/>
<polygon fill="black" stroke="black" points="798.86,-464.89 788.37,-466.4 797.52,-471.76 798.86,-464.89"/>
</g>
<!-- [root] meta.count&#45;boundary (EachMode fixup)&#45;&gt;[root] aws_main_route_table_association.public -->
<g id="edge34" class="edge">
<title>[root] meta.count&#45;boundary (EachMode fixup)&#45;&gt;[root] aws_main_route_table_association.public</title>
<path fill="none" stroke="black" d="M1082.13,-504.05C1089.32,-495.67 1098.14,-485.38 1106.1,-476.1"/>
<polygon fill="black" stroke="black" points="1108.95,-478.15 1112.8,-468.28 1103.64,-473.59 1108.95,-478.15"/>
</g>
<!-- [root] meta.count&#45;boundary (EachMode fixup)&#45;&gt;[root] aws_route.internet_gateway -->
<g id="edge35" class="edge">
<title>[root] meta.count&#45;boundary (EachMode fixup)&#45;&gt;[root] aws_route.internet_gateway</title>
<path fill="none" stroke="black" d="M1027.32,-504.41C1003.73,-494.7 973.71,-482.33 948.49,-471.95"/>
<polygon fill="black" stroke="black" points="949.66,-468.65 939.09,-468.08 947,-475.12 949.66,-468.65"/>
</g>
<!-- [root] meta.count&#45;boundary (EachMode fixup)&#45;&gt;[root] aws_route_table_association.public -->
<g id="edge36" class="edge">
<title>[root] meta.count&#45;boundary (EachMode fixup)&#45;&gt;[root] aws_route_table_association.public</title>
<path fill="none" stroke="black" d="M1136.63,-505.46C1182.75,-495.08 1243.76,-481.35 1292.98,-470.27"/>
<polygon fill="black" stroke="black" points="1293.99,-473.63 1302.97,-468.02 1292.45,-466.81 1293.99,-473.63"/>
</g>
<!-- [root] meta.count&#45;boundary (EachMode fixup)&#45;&gt;[root] aws_vpc_endpoint.heroku&#45;pg&#45;privatelink -->
<g id="edge37" class="edge">
<title>[root] meta.count&#45;boundary (EachMode fixup)&#45;&gt;[root] aws_vpc_endpoint.heroku&#45;pg&#45;privatelink</title>
<path fill="none" stroke="black" d="M1175.36,-507.8C1259.47,-497.47 1379.57,-482.64 1493.64,-468.25"/>
<polygon fill="black" stroke="black" points="1494.12,-471.71 1503.6,-466.99 1493.24,-464.77 1494.12,-471.71"/>
</g>
<!-- [root] provider.aws (close) -->
<g id="node38" class="node">
<title>[root] provider.aws (close)</title>
<ellipse fill="none" stroke="black" cx="1364.61" cy="-522" rx="104.33" ry="18"/>
<text text-anchor="middle" x="1364.61" y="-517.8" font-family="Times,serif" font-size="14.00">[root] provider.aws (close)</text>
</g>
<!-- [root] provider.aws (close)&#45;&gt;[root] aws_instance.ubuntu&#45;ec2 -->
<g id="edge42" class="edge">
<title>[root] provider.aws (close)&#45;&gt;[root] aws_instance.ubuntu&#45;ec2</title>
<path fill="none" stroke="black" d="M1291.16,-509.19C1278.01,-507.3 1264.42,-505.47 1251.61,-504 1052.29,-481.06 1000.52,-494.26 801.61,-468 800.52,-467.86 799.43,-467.71 798.33,-467.56"/>
<polygon fill="black" stroke="black" points="798.72,-464.08 788.32,-466.09 797.71,-471 798.72,-464.08"/>
</g>
<!-- [root] provider.aws (close)&#45;&gt;[root] aws_main_route_table_association.public -->
<g id="edge43" class="edge">
<title>[root] provider.aws (close)&#45;&gt;[root] aws_main_route_table_association.public</title>
<path fill="none" stroke="black" d="M1314.35,-506.15C1279.67,-495.91 1233.17,-482.18 1195.25,-470.98"/>
<polygon fill="black" stroke="black" points="1195.88,-467.52 1185.3,-468.04 1193.9,-474.23 1195.88,-467.52"/>
</g>
<!-- [root] provider.aws (close)&#45;&gt;[root] aws_route.internet_gateway -->
<g id="edge44" class="edge">
<title>[root] provider.aws (close)&#45;&gt;[root] aws_route.internet_gateway</title>
<path fill="none" stroke="black" d="M1289.25,-509.55C1276.69,-507.67 1263.78,-505.76 1251.61,-504 1140.16,-487.84 1109.62,-486.18 994.37,-468.09"/>
<polygon fill="black" stroke="black" points="994.87,-464.63 984.45,-466.52 993.78,-471.54 994.87,-464.63"/>
</g>
<!-- [root] provider.aws (close)&#45;&gt;[root] aws_route_table_association.public -->
<g id="edge45" class="edge">
<title>[root] provider.aws (close)&#45;&gt;[root] aws_route_table_association.public</title>
<path fill="none" stroke="black" d="M1368.07,-503.7C1369.61,-495.98 1371.47,-486.71 1373.19,-478.11"/>
<polygon fill="black" stroke="black" points="1376.66,-478.6 1375.19,-468.1 1369.79,-477.22 1376.66,-478.6"/>
</g>
<!-- [root] provider.aws (close)&#45;&gt;[root] aws_vpc_endpoint.heroku&#45;pg&#45;privatelink -->
<g id="edge46" class="edge">
<title>[root] provider.aws (close)&#45;&gt;[root] aws_vpc_endpoint.heroku&#45;pg&#45;privatelink</title>
<path fill="none" stroke="black" d="M1418.78,-506.58C1457.71,-496.22 1510.64,-482.13 1553.48,-470.73"/>
<polygon fill="black" stroke="black" points="1554.53,-474.07 1563.29,-468.12 1552.73,-467.31 1554.53,-474.07"/>
</g>
<!-- [root] provider.heroku (close) -->
<g id="node39" class="node">
<title>[root] provider.heroku (close)</title>
<ellipse fill="none" stroke="black" cx="1601.61" cy="-522" rx="114.94" ry="18"/>
<text text-anchor="middle" x="1601.61" y="-517.8" font-family="Times,serif" font-size="14.00">[root] provider.heroku (close)</text>
</g>
<!-- [root] provider.heroku (close)&#45;&gt;[root] heroku_addon.private_postgres_example -->
<g id="edge50" class="edge">
<title>[root] provider.heroku (close)&#45;&gt;[root] heroku_addon.private_postgres_example</title>
<path fill="none" stroke="black" d="M1692.83,-510.85C1718.93,-503.23 1744.62,-490.19 1760.61,-468 1788.67,-429.06 1786,-400.74 1760.61,-360 1752.1,-346.35 1738.94,-336.11 1724.69,-328.48"/>
<polygon fill="black" stroke="black" points="1726.23,-325.33 1715.71,-324.05 1723.13,-331.61 1726.23,-325.33"/>
</g>
<!-- [root] provider.null (close) -->
<g id="node40" class="node">
<title>[root] provider.null (close)</title>
<ellipse fill="none" stroke="black" cx="1838.61" cy="-522" rx="104.34" ry="18"/>
<text text-anchor="middle" x="1838.61" y="-517.8" font-family="Times,serif" font-size="14.00">[root] provider.null (close)</text>
</g>
<!-- [root] provider.null (close)&#45;&gt;[root] null_resource.private_postgres_endpoint_service -->
<g id="edge53" class="edge">
<title>[root] provider.null (close)&#45;&gt;[root] null_resource.private_postgres_endpoint_service</title>
<path fill="none" stroke="black" d="M1835.55,-503.97C1833.06,-484.76 1832.01,-453.41 1846.61,-432 1855.82,-418.49 1869.54,-408.25 1884.07,-400.57"/>
<polygon fill="black" stroke="black" points="1885.74,-403.64 1893.19,-396.11 1882.67,-397.36 1885.74,-403.64"/>
</g>
<!-- [root] provisioner.local&#45;exec (close) -->
<g id="node41" class="node">
<title>[root] provisioner.local&#45;exec (close)</title>
<ellipse fill="none" stroke="black" cx="1992.61" cy="-450" rx="137.12" ry="18"/>
<text text-anchor="middle" x="1992.61" y="-445.8" font-family="Times,serif" font-size="14.00">[root] provisioner.local&#45;exec (close)</text>
</g>
<!-- [root] provisioner.local&#45;exec (close)&#45;&gt;[root] null_resource.private_postgres_endpoint_service -->
<g id="edge54" class="edge">
<title>[root] provisioner.local&#45;exec (close)&#45;&gt;[root] null_resource.private_postgres_endpoint_service</title>
<path fill="none" stroke="black" d="M1982.72,-431.7C1978.12,-423.64 1972.55,-413.89 1967.46,-404.98"/>
<polygon fill="black" stroke="black" points="1970.38,-403.05 1962.38,-396.1 1964.31,-406.52 1970.38,-403.05"/>
</g>
<!-- [root] provisioner.remote&#45;exec (close) -->
<g id="node42" class="node">
<title>[root] provisioner.remote&#45;exec (close)</title>
<ellipse fill="none" stroke="black" cx="723.61" cy="-522" rx="144.35" ry="18"/>
<text text-anchor="middle" x="723.61" y="-517.8" font-family="Times,serif" font-size="14.00">[root] provisioner.remote&#45;exec (close)</text>
</g>
<!-- [root] provisioner.remote&#45;exec (close)&#45;&gt;[root] aws_instance.ubuntu&#45;ec2 -->
<g id="edge55" class="edge">
<title>[root] provisioner.remote&#45;exec (close)&#45;&gt;[root] aws_instance.ubuntu&#45;ec2</title>
<path fill="none" stroke="black" d="M720.15,-503.7C718.61,-495.98 716.75,-486.71 715.03,-478.11"/>
<polygon fill="black" stroke="black" points="718.42,-477.22 713.03,-468.1 711.56,-478.6 718.42,-477.22"/>
</g>
<!-- [root] root -->
<g id="node43" class="node">
<title>[root] root</title>
<ellipse fill="none" stroke="black" cx="1482.61" cy="-594" rx="46.9" ry="18"/>
<text text-anchor="middle" x="1482.61" y="-589.8" font-family="Times,serif" font-size="14.00">[root] root</text>
</g>
<!-- [root] root&#45;&gt;[root] meta.count&#45;boundary (EachMode fixup) -->
<g id="edge56" class="edge">
<title>[root] root&#45;&gt;[root] meta.count&#45;boundary (EachMode fixup)</title>
<path fill="none" stroke="black" d="M1440.53,-585.9C1376.25,-575.06 1251.84,-554.08 1164.45,-539.34"/>
<polygon fill="black" stroke="black" points="1164.96,-535.87 1154.52,-537.66 1163.8,-542.77 1164.96,-535.87"/>
</g>
<!-- [root] root&#45;&gt;[root] provider.aws (close) -->
<g id="edge57" class="edge">
<title>[root] root&#45;&gt;[root] provider.aws (close)</title>
<path fill="none" stroke="black" d="M1458.16,-578.5C1441.68,-568.72 1419.66,-555.66 1401.12,-544.66"/>
<polygon fill="black" stroke="black" points="1402.72,-541.54 1392.34,-539.45 1399.15,-547.56 1402.72,-541.54"/>
</g>
<!-- [root] root&#45;&gt;[root] provider.heroku (close) -->
<g id="edge58" class="edge">
<title>[root] root&#45;&gt;[root] provider.heroku (close)</title>
<path fill="none" stroke="black" d="M1507.27,-578.5C1523.76,-568.79 1545.78,-555.84 1564.4,-544.89"/>
<polygon fill="black" stroke="black" points="1566.38,-547.79 1573.22,-539.7 1562.83,-541.75 1566.38,-547.79"/>
</g>
<!-- [root] root&#45;&gt;[root] provider.null (close) -->
<g id="edge59" class="edge">
<title>[root] root&#45;&gt;[root] provider.null (close)</title>
<path fill="none" stroke="black" d="M1523.45,-584.97C1581.62,-573.53 1689.39,-552.34 1762.53,-537.96"/>
<polygon fill="black" stroke="black" points="1763.47,-541.34 1772.61,-535.98 1762.12,-534.47 1763.47,-541.34"/>
</g>
<!-- [root] root&#45;&gt;[root] provisioner.local&#45;exec (close) -->
<g id="edge60" class="edge">
<title>[root] root&#45;&gt;[root] provisioner.local&#45;exec (close)</title>
<path fill="none" stroke="black" d="M1529.4,-593.39C1634.43,-593.39 1884.95,-588.18 1951.61,-540 1971.69,-525.49 1982.19,-498.69 1987.51,-478.28"/>
<polygon fill="black" stroke="black" points="1990.98,-478.82 1989.85,-468.28 1984.16,-477.23 1990.98,-478.82"/>
</g>
<!-- [root] root&#45;&gt;[root] provisioner.remote&#45;exec (close) -->
<g id="edge61" class="edge">
<title>[root] root&#45;&gt;[root] provisioner.remote&#45;exec (close)</title>
<path fill="none" stroke="black" d="M1437.5,-589.28C1337.64,-580.99 1090.39,-560.13 883.61,-540 869.15,-538.59 853.97,-537.06 838.94,-535.5"/>
<polygon fill="black" stroke="black" points="838.89,-531.97 828.58,-534.42 838.17,-538.94 838.89,-531.97"/>
</g>
</g>
</svg>
